<?xml version='1.0' encoding='UTF-8' standalone='no'?>
<svg width="296.926mm" version="1.2" xmlns="http://www.w3.org/2000/svg" height="209.973mm" viewBox="0 0 3507 2480" xmlns:xlink="http://www.w3.org/1999/xlink" baseProfile="tiny" xmlns:inkscape="http://www.inkscape.org/namespaces/inkscape">
 <defs/>
 <g fill="none" inkscape:label="Layer 1" inkscape:groupmode="layer" stroke="black" fill-rule="evenodd" stroke-linejoin="bevel" stroke-linecap="square" id="Layer 1" stroke-width="1">
  <g stroke-opacity="1" fill="none" font-family=".SF NS Text" stroke="#000000" stroke-linejoin="bevel" font-style="normal" stroke-linecap="square" font-weight="400" stroke-width="1" transform="matrix(1,0,0,1,0,0)" font-size="54.1667"/>
  <g stroke-opacity="1" fill="none" font-family=".SF NS Text" stroke="#000000" stroke-linejoin="bevel" font-style="normal" stroke-linecap="square" font-weight="400" stroke-width="1" transform="matrix(11.8081,0,0,11.8081,0,0)" font-size="54.1667"/>
  <g fill="#ffffff" font-family=".SF NS Text" stroke="none" font-style="normal" fill-opacity="1" font-weight="400" transform="matrix(0.999751,0,0,0.999751,0,0)" font-size="54.1667">
   <path fill-rule="evenodd" vector-effect="none" d="M-1,-1 L3508.87,-1 L3508.87,2481.31 L-1,2481.31 L-1,-1"/>
  </g>
  <g stroke-opacity="1" fill="none" font-family=".SF NS Text" stroke="#000000" stroke-linejoin="bevel" font-style="normal" stroke-linecap="square" font-weight="400" stroke-width="1" transform="matrix(11.8081,0,0,11.8081,0,0)" font-size="54.1667"/>
  <g stroke-opacity="1" fill="none" font-family=".SF NS Text" stroke="#000000" stroke-linejoin="bevel" font-style="normal" stroke-linecap="square" font-weight="400" stroke-width="1" transform="matrix(11.8081,0,0,11.8081,0,0)" font-size="54.1667"/>
  <g stroke-opacity="1" fill="none" font-family=".SF NS Text" stroke="#000000" stroke-linejoin="bevel" font-style="normal" stroke-linecap="square" font-weight="400" stroke-width="1" transform="matrix(11.8081,0,0,11.8081,0,0)" font-size="54.1667"/>
  <g stroke-opacity="1" fill="none" font-family=".SF NS Text" stroke="#000000" stroke-linejoin="bevel" font-style="normal" stroke-linecap="square" font-weight="400" stroke-width="1" transform="matrix(11.8081,0,0,11.8081,0,0)" font-size="54.1667"/>
  <g stroke-opacity="1" fill="none" font-family=".SF NS Text" stroke="#000000" stroke-linejoin="bevel" font-style="normal" stroke-linecap="square" font-weight="400" stroke-width="1" transform="matrix(1,0,0,1,0,0)" font-size="54.1667"/>
 </g>
 <defs/>
 <g fill="none" inkscape:label="Layer 2" inkscape:groupmode="layer" stroke="black" fill-rule="evenodd" stroke-linejoin="bevel" stroke-linecap="square" id="Layer 2" stroke-width="1">
  <g stroke-opacity="1" fill="none" font-family=".SF NS Text" stroke="#000000" stroke-linejoin="bevel" font-style="normal" stroke-linecap="square" font-weight="400" stroke-width="1" transform="matrix(1,0,0,1,0,0)" font-size="54.1667"/>
  <g stroke-opacity="1" fill="none" font-family=".SF NS Text" stroke="#000000" stroke-linejoin="bevel" font-style="normal" stroke-linecap="square" font-weight="400" stroke-width="1" transform="matrix(11.8081,0,0,11.8081,569.021,688.98)" font-size="54.1667"/>
  <g stroke-opacity="1" fill="none" font-family=".SF NS Text" stroke="#000000" stroke-linejoin="bevel" font-style="normal" stroke-linecap="square" font-weight="400" stroke-width="1" transform="matrix(11.8081,0,0,11.8081,569.021,688.98)" font-size="54.1667"/>
  <g fill="#ffffff" font-family=".SF NS Text" stroke="none" font-style="normal" fill-opacity="1" font-weight="400" transform="matrix(11.8081,0,0,11.8081,569.021,688.98)" font-size="54.1667">
   <path fill-rule="evenodd" vector-effect="non-scaling-stroke" d="M0,0 L79.2231,0 L79.2231,74.3279 L0,74.3279 L0,0"/>
  </g>
  <g stroke-opacity="1" fill="none" font-family=".SF NS Text" stroke="#000000" stroke-linejoin="bevel" font-style="normal" stroke-linecap="square" font-weight="400" stroke-width="1" transform="matrix(11.8081,0,0,11.8081,569.021,688.98)" font-size="54.1667"/>
  <g fill="#000000" font-family=".SF NS Text" stroke="none" font-style="normal" fill-opacity="0" font-weight="400" transform="matrix(0.999751,0,0,0.999751,569.021,688.98)" font-size="54.1667">
   <path fill-rule="evenodd" vector-effect="non-scaling-stroke" d="M0,0 L936,0 L936,878 L0,878 L0,0"/>
  </g>
  <g stroke-opacity="1" fill="none" font-family=".SF NS Text" stroke="#000000" stroke-linejoin="bevel" font-style="normal" stroke-linecap="square" font-weight="400" stroke-width="1" transform="matrix(11.8081,0,0,11.8081,569.021,688.98)" font-size="54.1667"/>
  <g stroke-opacity="1" fill="none" font-family=".SF NS Text" stroke="#000000" stroke-linejoin="bevel" font-style="normal" stroke-linecap="square" font-weight="400" stroke-width="1" transform="matrix(11.8081,0,0,11.8081,569.021,688.98)" font-size="54.1667"/>
  <g stroke-opacity="1" fill="none" font-family=".SF NS Text" stroke="#000000" stroke-linejoin="bevel" font-style="normal" stroke-linecap="square" font-weight="400" stroke-width="1" transform="matrix(11.8081,0,0,11.8081,569.021,688.98)" font-size="54.1667"/>
  <g stroke-opacity="1" fill="none" font-family=".SF NS Text" stroke="#000000" stroke-linejoin="bevel" font-style="normal" stroke-linecap="square" font-weight="400" stroke-width="1" transform="matrix(1,0,0,1,0,0)" font-size="54.1667"/>
  <g stroke-opacity="1" fill="none" font-family=".SF NS Text" stroke="#000000" stroke-linejoin="bevel" font-style="normal" stroke-linecap="square" font-weight="400" stroke-width="1" transform="matrix(11.8081,0,0,11.8081,569.021,688.98)" font-size="54.1667"/>
  <g stroke-opacity="1" fill="none" font-family=".SF NS Text" stroke="#000000" stroke-linejoin="bevel" font-style="normal" stroke-linecap="square" font-weight="400" stroke-width="1" transform="matrix(11.8081,0,0,11.8081,569.021,688.98)" font-size="54.1667"/>
  <g stroke-opacity="1" fill="none" font-family=".SF NS Text" stroke="#000000" stroke-linejoin="bevel" font-style="normal" stroke-linecap="square" font-weight="400" stroke-width="1" transform="matrix(11.8081,0,0,11.8081,0,0)" font-size="54.1667"/>
  <g stroke-opacity="1" fill="none" font-family=".SF NS Text" stroke="#000000" stroke-linejoin="bevel" font-style="normal" stroke-linecap="square" font-weight="400" stroke-width="1" transform="matrix(11.8081,0,0,11.8081,0,0)" font-size="54.1667"/>
  <g stroke-opacity="1" fill="none" font-family=".SF NS Text" stroke="#000000" stroke-linejoin="bevel" font-style="normal" stroke-linecap="square" font-weight="400" stroke-width="1" transform="matrix(1,0,0,1,0,0)" font-size="54.1667"/>
 </g>
 <defs/>
 <g fill="none" inkscape:label="Layer 3" inkscape:groupmode="layer" stroke="black" fill-rule="evenodd" stroke-linejoin="bevel" stroke-linecap="square" id="Layer 3" stroke-width="1">
  <g stroke-opacity="1" fill="none" font-family=".SF NS Text" stroke="#000000" stroke-linejoin="bevel" font-style="normal" stroke-linecap="square" font-weight="400" stroke-width="1" transform="matrix(1,0,0,1,0,0)" font-size="54.1667"/>
  <g stroke-opacity="1" fill="none" font-family=".SF NS Text" stroke="#000000" stroke-linejoin="bevel" font-style="normal" stroke-linecap="square" font-weight="400" stroke-width="1" transform="matrix(11.8081,0,0,11.8081,569.021,688.98)" font-size="54.1667"/>
  <g stroke-opacity="1" fill="none" font-family=".SF NS Text" stroke="#000000" stroke-linejoin="bevel" font-style="normal" stroke-linecap="square" font-weight="400" stroke-width="1" transform="matrix(11.8081,0,0,11.8081,569.021,688.98)" font-size="54.1667"/>
  <g fill="#000000" font-family=".SF NS Text" stroke="none" font-style="normal" fill-opacity="0" font-weight="400" transform="matrix(0.999751,0,0,0.999751,569.021,688.98)" font-size="54.1667">
   <path fill-rule="evenodd" vector-effect="non-scaling-stroke" d="M0,0 L936,0 L936,878 L0,878 L0,0"/>
  </g>
  <g stroke-opacity="1" fill="#a5a5a5" font-family=".SF NS Text" stroke="#ffffff" stroke-linejoin="bevel" font-style="normal" fill-opacity="1" stroke-linecap="square" font-weight="400" stroke-width="5.43307" transform="matrix(0.999751,0,0,0.999751,569.021,688.98)" font-size="54.1667">
   <path fill-rule="evenodd" vector-effect="none" d="M419.749,588.98 L420.735,592.418 L415.246,590.016 L413.85,590.256 L413.2,592.664 L415.865,593.741 L424.579,593.823 L426.884,594.382 L431.753,596.474 L434.422,595.663 L437.48,592.521 L440.242,588.557 L442.096,585.286 L442.89,582.815 L443.263,580.953 L443.975,579.735 L445.875,579.188 L446.235,579.652 L450.029,582.026 L452.602,586.619 L452.259,589.943 L450.96,593.164 L450.644,597.485 L451.496,599.395 L455.918,604.024 L456.624,605.732 L458.026,610.086 L458.67,611.369 L460.857,612.499 L465.664,611.936 L467.978,612.098 L470.254,614.819 L470.532,621.901 L472.742,622.395 L473.543,622.168 L477.416,621.073 L492.208,621.226 L494.783,620.18 L499.897,616.31 L502.32,615.04 L505.025,615.257 L508.016,617.008 L510.429,619.951 L511.452,623.776 L512.009,628.286 L512.765,628.888 L514.948,630.628 L522.103,632.516 L523.838,633.648 L525.089,634.988 L526.481,635.91 L528.626,635.812 L533.82,634.54 L535.429,634.65 L537.516,635.798 L540.263,639.308 L541.984,640.649 L545.787,639.526 L547.927,639.614 L549.137,642.105 L549.484,643.049 L547.792,644.859 L547.478,647.147 L550.443,650.09 L549.321,650.911 L548.072,651.474 L546.734,651.731 L545.355,651.634 L545.721,653.062 L545.939,653.661 L546.319,654.449 L545.49,657.214 L544.858,658.654 L543.961,659.98 L542.449,658.781 L541.449,659.452 L540.887,661.404 L540.688,664.052 L542.473,666.301 L540.671,671.228 L536.02,679.317 L538.797,678.453 L540.005,678.438 L541.253,679.123 L539.902,681.603 L537.905,686.31 L536.371,688.816 L535.791,689.322 L534.354,689.899 L532.919,690.539 L524.205,701.013 L524.637,705.454 L526.79,708.414 L528.949,709.81 L529.701,710.296 L532.471,711.503 L534.46,712.017 L534.324,714.369 L533.187,718.981 L535.53,720.213 L536.91,720.441 L538.217,720.125 L538.805,719.17 L540.089,717.081 L541.178,716.175 L542.461,716.611 L545.15,719.362 L546.475,720.218 L557.407,719.521 L558.865,719.922 L558.869,719.923 L560.259,720.305 L569.428,720.239 L571.952,719.663 L571.758,720.042 L571.695,720.405 L571.722,720.764 L571.92,721.127 L574.065,722.141 L574.208,724.051 L573.824,726.167 L574.387,727.812 L576.066,727.939 L581.009,726.356 L583.119,726.464 L585.648,728.788 L593.841,740.222 L592.2,741.373 L593.8,744.168 L596.461,745.424 L605.208,745.26 L605.548,746.44 L604.736,748.247 L603.373,750.057 L603.404,750.777 L600.65,752.586 L596.8,756.078 L594.625,759.837 L596.849,762.409 L595.918,763.983 L596.127,764.88 L597.168,765.268 L598.654,765.318 L597.719,767.078 L598.782,767.98 L599.968,770.204 L601.013,770.973 L602.275,770.98 L606.505,769.467 L606.769,769.177 L607.079,769.061 L607.372,769.151 L607.673,769.416 L609.654,770.255 L615.206,771.275 L617.521,771.305 L616.166,772.757 L615.923,774.364 L616.37,776.136 L617.156,778.119 L618.327,779.869 L619.24,780.003 L619.757,780.66 L619.815,783.984 L619.119,788.711 L618.359,791.413 L618.635,793.759 L623.402,801.248 L623.579,802.507 L623.791,804.011 L622.275,805.779 L618.919,806.548 L617.194,806.317 L615.72,805.816 L614.293,805.756 L612.613,806.829 L611.416,808.427 L610.658,810.375 L610.482,812.391 L611.127,814.155 L608.875,816.375 L603.458,818.155 L600.863,819.523 L599.693,821.509 L596.892,823.677 L595.646,825.46 L597.428,827.279 L598.236,829.51 L598.252,831.754 L597.566,833.667 L596.642,834.324 L594.102,834.637 L593.035,835.362 L592.825,836.03 L592.495,838.278 L592.259,839.266 L593.597,840.26 L594.098,841.464 L593.784,842.816 L592.678,844.232 L590.739,843.458 L590.383,841.897 L590.45,840.01 L589.819,838.204 L588.102,836.679 L587.117,836.854 L586.335,837.771 L585.254,838.506 L582.367,839.087 L580.918,838.94 L580.346,838.69 L579.194,838.186 L578.356,836.758 L577.857,834.874 L577.002,834.012 L575.098,835.664 L572.389,836.06 L571.379,837.943 L570.959,840.688 L570.054,843.586 L568.229,845.644 L563.561,848.163 L561.52,850.177 L561.106,851.459 L560.978,854.697 L560.713,856.066 L559.975,857.226 L558.171,858.921 L557.45,860.184 L557.683,862.481 L557.755,864.352 L557.496,865.937 L556.607,866.959 L554.053,868.208 L553.298,869.296 L553.255,872.046 L554.198,873.123 L554.757,874.203 L553.454,876.99 L552.43,878.027 L550.55,878.539 L549.671,879.179 L548.712,880.553 L548.273,881.609 L548.005,882.627 L547.534,883.911 L543.369,891.793 L542.919,893.703 L544.46,894.377 L547.383,896.442 L548.645,898.207 L545.257,897.982 L545.312,899.132 L545.148,899.735 L544.925,900.207 L544.726,900.934 L546.004,902.041 L544.512,903.124 L544.01,905.047 L544.282,907.414 L545.158,909.883 L546.598,912.095 L547.925,912.685 L549.318,912.87 L550.993,913.817 L551.891,915.05 L555.151,920.94 L555.386,921.868 L555.77,924.632 L555.734,925.097 L556.585,925.734 L558.405,926.211 L559.194,926.614 L559.919,926.72 L560.735,926.411 L561.577,926.441 L562.368,927.595 L562.437,928.045 L562.6,929.109 L562.151,929.95 L561.551,930.683 L561.393,931.79 L561.375,933.088 L561.013,933.74 L560.853,934.456 L561.362,935.899 L562.268,936.533 L564.868,936.733 L565.832,937.488 L566.661,940.287 L566.007,942.042 L564.77,943.283 L563.788,944.535 L562.306,949.182 L561.353,951.215 L559.948,952.647 L562.185,953.767 L561.073,956.918 L558.223,960.205 L555.201,961.789 L553.676,961.475 L550.776,959.832 L549.377,959.678 L548.013,960.468 L546.421,962.739 L544.841,963.496 L542.027,963.113 L539.195,961.835 L536.256,961.27 L533.089,963.027 L531.623,965.187 L531.378,966.626 L530.978,967.443 L529.073,967.766 L527.952,967.506 L523.832,965.753 L521.433,966.924 L518.266,969.592 L514.97,971.667 L512.147,971.018 L511.287,969.277 L511.363,967.494 L511.716,965.61 L511.675,963.533 L511.081,961.731 L504.488,950.656 L503.037,949.435 L502.014,948.574 L497.961,947.23 L496.464,946.392 L495.659,946.283 L495.194,946.833 L494.681,947.939 L494.031,948.968 L493.118,949.284 L490.954,948.928 L490.302,948.166 L489.939,946.346 L490.254,943.517 L491.275,942.817 L491.84,942.08 L490.855,939.126 L488.266,936.139 L485.491,933.548 L482.706,933.704 L476.925,935.5 L473.925,934.712 L471.527,933.032 L469.554,931.226 L463.839,923.425 L462.266,921.998 L457.634,920.798 L455.025,919.408 L450.105,914.797 L447.742,913.564 L447.404,913.589 L445.044,913.768 L439.504,915.885 L436.627,916.421 L433.247,916.022 L432.052,914.539 L431.895,907.096 L431.547,905.922 L430.232,903.866 L429.942,902.875 L430.152,901.656 L431.262,900.292 L431.661,899.243 L432.292,896.79 L432.902,895.108 L433.191,893.383 L432.901,890.798 L430.806,887.188 L424.668,884.838 L422.89,882.093 L423.371,878.903 L428.003,866.499 L428.07,864.368 L427.831,862.718 L427.933,860.916 L430.211,855.562 L430.987,855.358 L432.4,856.824 L432.604,853.332 L433.188,849.203 L433.273,845.713 L432.058,844.191 L428.075,845.122 L426.62,844.551 L425.967,841.604 L422.557,843.271 L409.235,857.405 L408.53,858.984 L408.23,860.956 L408.561,862.141 L409.06,863.128 L409.223,864.492 L408.385,870.867 L407.555,874.043 L406.426,876.342 L405.054,877.287 L399.729,878.257 L382.017,887.496 L378.222,888.238 L377.259,887.993 L357.9,883.053 L350.007,884.328 L348.108,884.634 L346.375,884.168 L339.127,880.404 L339.217,880.41 L340.149,880.481 L339.946,877.563 L339.197,874.531 L338.583,874.283 L339.078,871.931 L339.704,870.43 L340.614,869.275 L342.925,867.049 L345.857,864.885 L348.904,863.304 L348.922,861.997 L348.01,860.428 L347.213,858.57 L344.92,850.019 L343.641,849.392 L342.27,849.629 L339.737,850.83 L337.912,849.943 L338.161,846.34 L340.496,838.324 L341.127,834.695 L341.682,833.061 L343.011,831.097 L345.981,828.695 L347.211,827.236 L347.481,825.154 L346.682,823.871 L345.078,822.508 L343.348,821.456 L342.195,821.063 L340.611,821.766 L340.564,823.042 L340.744,824.407 L339.822,825.347 L337.458,824.282 L333.855,816.839 L331.186,814.523 L328.451,812.989 L324.16,808.36 L321.67,807.211 L318.976,807.535 L310.926,811.052 L308.043,811.118 L305.753,810.055 L303.55,808.549 L300.903,807.242 L295.606,806.653 L290.058,807.132 L288.341,807.787 L287.326,808.969 L285.073,812.888 L284.536,814.549 L284.199,815.149 L283.624,815.555 L283.411,815.372 L283.228,815.487 L282.74,816.777 L278.224,812.623 L277.034,804.5 L276.939,795.216 L275.795,787.534 L273.701,783.799 L271.161,781.404 L268.369,780.038 L265.491,779.454 L257.291,779.461 L255.709,778.299 L256.927,776.081 L257.113,774.475 L256.28,773.442 L254.454,772.899 L252.646,773.055 L251.353,773.916 L250.102,775.188 L248.391,776.525 L242.841,778.581 L239.76,778.966 L237.54,778.35 L231.98,775.484 L230.309,774.175 L228.307,771.622 L227.643,769.363 L227.424,763.019 L224.035,751.833 L222.997,746.079 L224.751,742.752 L223.299,738.016 L222.287,736.179 L220.588,735.629 L218.812,735.387 L217.803,734.217 L216.24,730.437 L214.483,727.295 L214.482,727.292 L212.377,723.526 L210.234,721.504 L206.96,720.512 L196.935,723.669 L190.323,725.744 L187.413,727.562 L185.114,730.038 L181.308,736.625 L179.634,737.908 L177.663,737.483 L177.088,737.218 L166.993,732.564 L164.663,730.593 L164.001,729.367 L162.318,725.341 L161.605,724.022 L156.928,719.512 L156.1,718.017 L155.714,716.669 L155.08,715.514 L153.429,714.633 L152.231,714.494 L149.885,714.813 L148.856,714.767 L147.007,714.367 L146.084,713.951 L145.426,712.816 L144.358,710.291 L143.789,709.641 L142.269,708.851 L141.869,708.17 L142.005,707.255 L142.993,705.05 L143.144,703.755 L140.708,695.011 L141.446,693.196 L144.361,690.312 L145.108,689.123 L144.726,685.162 L142.768,682.169 L138.306,677.156 L137.084,673.308 L135.881,664.519 L134,659.944 L134.003,659.942 L136.544,658.104 L141.304,656.553 L158.359,643.76 L184.387,628.505 L209.494,611.946 L237.392,602.803 L237.447,602.788 L238.562,610.446 L238.071,615.385 L238.003,620.023 L239.795,625.012 L242.844,628.323 L243.739,628.73 L246.637,630.05 L250.629,630.494 L256.536,629.53 L256.884,627.646 L256.544,625.129 L256.761,622.829 L258.118,621.411 L259.947,620.94 L261.945,620.807 L266.902,619.653 L269.982,619.448 L273.172,619.94 L288.48,624.871 L290.858,626.399 L291.531,628.999 L291.348,631.212 L291.577,633.287 L293.461,635.477 L295.018,636.144 L309.808,635.785 L312.6,634.849 L318.236,630.306 L333.598,622.289 L339.713,617.323 L344.515,610.534 L345.178,608.543 L346.028,603.895 L346.08,603.062 L346.085,603.064 L346.167,603.112 L348.556,605.291 L349.583,607.249 L350.528,610.862 L352.631,613.336 L354.928,615.272 L356.486,617.197 L356.965,618.452 L357.169,619.663 L356.859,621.07 L356.041,622.477 L355.804,622.886 L357.244,622.132 L358.229,620.996 L359.958,617.134 L355.723,615.404 L354.734,614.628 L354.216,612.871 L354.232,608.562 L353.81,606.496 L352.86,604.917 L351.006,602.706 L351.005,602.704 L353.505,602.747 L354.624,602.766 L359.174,605.138 L361.597,605.917 L367.412,606.184 L369.757,604.879 L370.309,601.438 L369.512,599.499 L366.656,596.22 L365.658,594.449 L365.71,592.432 L366.491,590.864 L366.721,589.44 L365.186,587.818 L371.615,583.894 L378.233,581.304 L381.893,580.622 L383.466,580.877 L384.49,582.517 L384.392,585.847 L383.39,588.348 L383.199,590.296 L385.613,591.953 L387.262,592.072 L390.836,591.338 L394.831,592.253 L396.757,592.082 L398.414,591.407 L399.678,590.422 L409.016,578.38 L413.06,576.169 L414.862,576.301 L417.142,577.109 L419.256,578.431 L420.582,580.085 L420.927,583.081 L420.227,585.953 L419.749,588.98"/>
   <path fill-rule="evenodd" vector-effect="none" d="M637.192,152.736 L638.121,153.872 L639.05,155.723 L637.957,155.164 L636.329,153.415 L635.296,153.079 L634.113,153.352 L632.407,154.367 L631.696,154.631 L629.511,153.681 L627.763,151.433 L627.189,149.117 L628.512,147.986 L637.379,144.747 L641.779,144.173 L643.534,147.196 L640.897,147.726 L636.879,149.741 L634.721,150.39 L634.785,151.612 L636.132,152.061 L637.192,152.736"/>
   <path fill-rule="evenodd" vector-effect="none" d="M676.588,128.887 L651.748,133.122 L656.002,130.713 L671.971,127.723 L676.588,128.887"/>
   <path fill-rule="evenodd" vector-effect="none" d="M706.992,119.852 L706.814,120.09 L706.487,120.102 L701.129,122.646 L686.827,125.417 L681.975,124.369 L687.195,120.871 L693.496,119.425 L706.876,118.909 L706.992,119.852"/>
   <path fill-rule="evenodd" vector-effect="none" d="M715.812,117.113 L717.416,118.256 L717.09,119.056 L716.716,119.397 L715.811,119.721 L710.997,118.549 L709.276,118.761 L711.14,117.273 L713.526,116.752 L715.812,117.113"/>
   <path fill-rule="evenodd" vector-effect="none" d="M804.267,112.851 L802.519,114.817 L801.973,115.271 L800.936,115.078 L800.25,114.664 L799.533,114.619 L798.345,115.534 L798.247,114.175 L799.539,111.503 L801.787,110.315 L804.466,110.551 L807.092,112.165 L805.403,112.289 L804.267,112.851"/>
   <path fill-rule="evenodd" vector-effect="none" d="M739.722,112.248 L739.562,112.453 L739.274,112.464 L738.969,112.662 L730.356,112.951 L726.437,114.185 L726.342,117.693 L722.898,118.082 L721.782,117.202 L721.21,114.548 L721.661,112.229 L723.061,111.222 L726.639,110.857 L737.144,110.083 L739.608,111.385 L739.722,112.248"/>
   <path fill-rule="evenodd" vector-effect="none" d="M759.581,105.847 L757.057,107.692 L753.853,109.314 L750.481,109.742 L747.468,108.024 L746.495,109.633 L745.512,110.494 L744.513,110.544 L743.547,109.762 L746.291,105.81 L751.163,104.373 L761.167,104.382 L761.259,105.733 L759.581,105.847"/>
   <path fill-rule="evenodd" vector-effect="none" d="M774.714,101.572 L777.981,103.271 L776.844,103.131 L775.591,103.39 L770.556,102.576 L768.446,102.835 L768.439,105.242 L766.055,103.764 L766.486,102.466 L768.53,101.537 L770.973,101.084 L772.921,101.136 L774.714,101.572"/>
   <path fill-rule="evenodd" vector-effect="none" d=""/>
   <path fill-rule="evenodd" vector-effect="none" d=""/>
   <path fill-rule="evenodd" vector-effect="none" d=""/>
   <path fill-rule="evenodd" vector-effect="none" d="M766.438,24.6458 L765.89,25.1312 L765.662,24.3177 L765.167,24.1976 L764.735,23.3332 L764.17,22.7544 L763.423,22.1557 L765.121,21.8916 L765.888,22.6351 L766.438,24.6458"/>
   <path fill-rule="evenodd" vector-effect="none" d="M769.723,22.522 L767.922,23.2252 L767.232,22.2163 L769.231,21.4751 L769.723,22.522"/>
   <path fill-rule="evenodd" vector-effect="none" d="M876.373,-41.3935 L871.375,-40.5846 L868.919,-41.2518 L867.452,-43.3859 L868.658,-44.1699 L868.772,-45.3114 L868.144,-46.4727 L867.126,-47.3247 L870.493,-51.1634 L874.401,-53.3715 L878.951,-54.0231 L884.146,-53.1031 L883.63,-52.8148 L883.427,-52.1948 L883.446,-51.3004 L883.662,-50.211 L881.709,-47.9764 L880.447,-45.4017 L878.959,-43.02 L876.373,-41.3935"/>
   <path fill-rule="evenodd" vector-effect="none" d=""/>
   <path fill-rule="evenodd" vector-effect="none" d="M850.575,-45.9618 L847.432,-43.8034 L844.829,-43.6434 L843.255,-44.8362 L841.84,-47.613 L842.299,-50.8733 L844.259,-52.6582 L845.073,-53.1305 L845.848,-53.7301 L853.03,-57.5021 L853.44,-55.3697 L852.905,-50.4248 L850.575,-45.9618"/>
   <path fill-rule="evenodd" vector-effect="none" d=""/>
   <path fill-rule="evenodd" vector-effect="none" d=""/>
   <path fill-rule="evenodd" vector-effect="none" d="M811.649,-84.5306 L811.488,-84.2986 L811.156,-84.322 L810.855,-84.063 L809.681,-82.6551 L808.635,-81.0536 L815.224,-70.6293 L817.515,-69.5687 L816.043,-68.0882 L812.227,-66.3636 L809.335,-68.633 L806.857,-72.4318 L804.331,-75.3813 L807.192,-81.9284 L809.08,-84.3587 L811.538,-85.4824 L811.649,-84.5306"/>
   <path fill-rule="evenodd" vector-effect="none" d="M836.459,-83.3434 L835.611,-81.9084 L834.077,-81.2737 L832.109,-81.3539 L830.293,-81.8943 L829.234,-82.6492 L826.324,-81.273 L822.505,-82.1302 L815.473,-85.7847 L817.417,-90.1259 L819.814,-92.851 L822.861,-94.3499 L826.681,-94.9748 L833.112,-95.0922 L835.85,-93.6983 L838.185,-90.3029 L838.293,-88.9439 L837.466,-87.266 L836.459,-83.3434"/>
   <path fill-rule="evenodd" vector-effect="none" d="M897.301,-121.496 L905.17,-120.354 L907.242,-118.82 L907.942,-116.864 L908.532,-114.122 L909.585,-111.835 L911.687,-111.194 L920.066,-111.917 L921.758,-112.391 L922.767,-113.652 L924.363,-114.253 L925.517,-115.497 L927.549,-116.159 L930.062,-114.184 L932.029,-114.137 L933.672,-114.868 L933.733,-114.927 L933.734,-114.927 L935.332,-115.066 L941.844,-119.169 L943.765,-122.089 L946.46,-123.467 L947.597,-126.071 L949.225,-126.225 L950.078,-120.431 L955.827,-118.896 L962.911,-119.197 L967.887,-117.53 L970.042,-116.196 L973.146,-115.2 L976.053,-113.524 L977.585,-110.198 L979.093,-108.477 L982.044,-109.288 L987.07,-111.814 L986.214,-115.9 L988.904,-116.354 L992.862,-114.405 L995.832,-111.314 L998.08,-104.69 L998.968,-103.179 L1000.16,-101.78 L1002.54,-99.6685 L1001.18,-98.3805 L999.643,-98.4225 L998.154,-98.9348 L997.049,-99.1183 L997.158,-98.6884 L994.537,-96.142 L994.174,-96.0895 L993.484,-95.5069 L992.983,-95.5061 L992.745,-95.0499 L992.87,-93.2178 L994.567,-93.2721 L997.483,-94.4847 L1000.47,-94.9548 L1002.44,-92.8011 L1003.57,-93.992 L1004.87,-94.2209 L1005.63,-93.0728 L1005.08,-90.2017 L1005.94,-87.5045 L1006.41,-83.5764 L1006.58,-75.2916 L1006.36,-71.7096 L1005.85,-68.8261 L1004.97,-66.4279 L1003.72,-64.1647 L1000.35,-60.3182 L995.946,-57.262 L991.102,-55.1279 L986.307,-54.1117 L986.44,-52.7538 L991.696,-50.6247 L1018.94,-60.0997 L1021.19,-59.5444 L1024.59,-57.1244 L1026.57,-37.8446 L1025.36,-36.5856 L1023.42,-35.7755 L1023.77,-35.3618 L1024.2,-35.0628 L1024.32,-34.4464 L1023.7,-33.0603 L1025.08,-31.8378 L1025.6,-30.2088 L1025.34,-28.2878 L1024.39,-26.2723 L1026.84,-27.4778 L1027.52,-28.516 L1124.61,952.906 L652.099,986.508 L651.665,986.088 L650.705,984.804 L650.956,984.71 L650.877,983.602 L650.451,981.974 L649.57,980.357 L647.244,978.312 L635.072,972.907 L633.628,972.725 L632.588,973.183 L630.199,974.989 L628.83,975.318 L627.717,975.251 L627.661,973.784 L626.992,967.78 L627.552,961.32 L627.719,959.396 L627.438,953.096 L628.076,950.874 L629.89,947.724 L633.069,943.42 L634.256,940.668 L635.165,939.185 L635.472,938.275 L635.292,936.965 L634.469,936.23 L633.616,935.702 L633.359,935.055 L635.233,932.158 L644.432,925.576 L644.159,925.156 L643.232,924.179 L643.627,923.193 L644.213,922.867 L645.353,923.257 L644.376,922.066 L643.696,920.666 L643.328,919.056 L643.338,917.274 L644.539,916.116 L644.557,915.342 L644.169,914.475 L644.117,913.066 L644.527,908.711 L644.707,908.568 L644.642,906.893 L644.909,906.602 L644.951,906.641 L644.224,905.923 L643.717,905.916 L639.698,904.928 L633.525,905.212 L631.249,904.697 L629.005,903.408 L625.149,900.049 L622.907,898.769 L621.776,898.789 L619.9,900.046 L618.859,899.999 L618.697,899.337 L617.836,897.32 L617.256,895.961 L616.597,894.898 L614.67,893.768 L610.228,892.015 L608.135,890.066 L603.478,880.072 L601.124,876.599 L599.86,879.391 L598.765,877.697 L596.581,872.188 L594.226,868.909 L593.602,867.319 L593.868,865.094 L592.9,860.975 L591.998,859.375 L590.575,858.631 L591.669,856.259 L592.119,855.591 L591.826,855.562 L591.061,855.666 L590.83,855.532 L591.405,849.907 L591.913,847.147 L592.678,844.232 L593.784,842.816 L594.098,841.464 L593.597,840.26 L592.259,839.266 L592.495,838.278 L592.825,836.03 L593.035,835.362 L594.102,834.637 L596.642,834.324 L597.566,833.667 L598.252,831.754 L598.236,829.51 L597.428,827.279 L595.646,825.46 L596.892,823.677 L599.693,821.509 L600.863,819.523 L603.458,818.155 L608.875,816.375 L611.127,814.155 L610.482,812.391 L610.658,810.375 L611.416,808.427 L612.613,806.829 L614.293,805.756 L615.72,805.816 L617.194,806.317 L618.919,806.548 L622.275,805.779 L623.791,804.011 L623.579,802.507 L623.402,801.248 L618.635,793.759 L618.359,791.413 L619.119,788.711 L619.815,783.984 L619.757,780.66 L619.24,780.003 L618.327,779.869 L617.156,778.119 L616.37,776.136 L615.923,774.364 L616.166,772.757 L617.521,771.305 L615.206,771.275 L609.654,770.255 L607.673,769.416 L607.372,769.151 L607.079,769.061 L606.769,769.177 L606.505,769.467 L602.275,770.98 L601.013,770.973 L599.968,770.204 L598.782,767.98 L597.719,767.078 L598.654,765.318 L597.168,765.268 L596.127,764.88 L595.918,763.983 L596.849,762.409 L594.625,759.837 L596.8,756.078 L600.65,752.586 L603.404,750.777 L603.373,750.057 L604.736,748.247 L605.548,746.44 L605.208,745.26 L596.461,745.424 L593.8,744.168 L592.2,741.373 L593.841,740.222 L585.648,728.788 L583.119,726.464 L581.009,726.356 L576.066,727.939 L574.387,727.812 L573.824,726.167 L574.208,724.051 L574.065,722.141 L571.92,721.127 L571.722,720.764 L571.695,720.405 L571.758,720.042 L571.952,719.663 L572.121,717.062 L571.25,715.882 L569.964,715.059 L568.932,713.432 L568.295,710.905 L570.23,711.311 L571.973,709.541 L572.541,707.15 L572.193,705.331 L572.006,703.619 L573.032,701.58 L574.722,700.522 L577.57,700.652 L578.906,698.908 L579.589,696.831 L579.562,695.246 L578.326,691.199 L578.506,689.874 L579.124,688.767 L579.338,687.955 L575.171,686.696 L572.132,684.956 L571.128,683.937 L570.738,682.367 L570.44,679.506 L570.853,677.831 L571.551,676.125 L571.249,675.097 L566.767,675.824 L563.426,674.867 L561.677,674.7 L559.996,675.25 L556.801,676.993 L555.101,677.409 L554.775,672.397 L552.62,666.752 L551.726,662.122 L555.167,660.135 L556.941,661.044 L558.508,662.923 L560.241,664.388 L562.539,664.05 L564.014,662.292 L566.221,657.132 L567.826,655.121 L579.039,645.556 L586.003,641.385 L587.76,638.833 L585.031,636.494 L587.787,634.033 L588.757,633.409 L585.846,632.545 L579.798,637.091 L576.795,635.579 L575.751,631.941 L575.928,627.485 L576.834,623.477 L578.02,621.229 L580.517,617.906 L586.409,605.827 L587.655,604.491 L590.728,602.144 L591.888,600.337 L592.45,597.831 L592.645,593.455 L593.289,591.676 L591.313,589.512 L591.321,585.84 L592.087,581.568 L592.364,577.611 L591.603,574.029 L590.432,567.55 L585.179,561.98 L576.442,550.972 L575.801,548.553 L576.347,545.683 L577.604,541.17 L569.072,537.836 L566.084,534.335 L567.512,528.632 L566.234,527.418 L563.389,525.44 L561.944,524.819 L558.36,525.047 L557.114,524.598 L557.13,522.456 L557.832,521.699 L559.763,519.615 L559.817,515.586 L558.015,511.803 L555.124,509.762 L555.473,507.972 L557.466,506.434 L562.462,505.335 L564.803,504.219 L567.272,502.216 L569.002,501.197 L573.963,499.633 L578.007,500.532 L580.942,501.153 L582.95,501.56 L581.182,499.021 L576.379,494.386 L574.803,493.289 L578.891,490.838 L582.942,492.543 L587.039,495.583 L591.277,497.111 L595.084,496.092 L596.108,496.17 L597.024,496.984 L598.497,499.369 L599.088,500.027 L603.845,500.532 L605.898,501.607 L606.41,504.69 L610.975,503.186 L611.393,501.178 L610.178,496.738 L618.181,498.707 L620.69,498.588 L622.683,497.565 L628.517,492.617 L640.562,487.82 L651.438,486.92 L654.677,484.945 L657.361,481.38 L659.904,476.135 L660.85,474.978 L661.781,474.764 L662.372,474.125 L662.359,471.688 L661.984,470.362 L661.298,469.435 L657.95,466.239 L649.701,462.161 L646.972,461.501 L644.949,460.218 L644.542,457.198 L645.286,455.084 L646.362,454.503 L647.649,454.345 L649.081,453.53 L650.006,452.23 L650.876,449.645 L651.464,448.481 L653.429,446.21 L655.334,445.009 L656.029,444.894 L663.224,443.698 L664.693,442.203 L667.106,436.529 L669.35,433.909 L674.472,431.324 L676.793,429.023 L679.406,424.199 L680.635,422.59 L685.881,418.98 L686.165,417.938 L685.827,417.39 L685.038,416.109 L683.717,411.919 L683.59,408.271 L684.306,405.221 L686.433,399.4 L687.059,392.091 L685.062,387.073 L676.991,375.432 L676.245,375.834 L675.564,377.211 L674.492,378.342 L671.5,379.403 L668.32,379.786 L664.859,379.411 L658.449,377.34 L648.756,376.482 L645.473,375.08 L642.931,372.407 L642.038,369.479 L641.683,365.983 L641.075,362.453 L639.424,359.409 L641.421,359.127 L647.975,355.372 L643.83,352.211 L642.912,350.975 L642.789,349.322 L643.255,347.643 L643.401,345.847 L642.28,343.818 L644.295,342.189 L646.387,340.498 L650.373,339.027 L661.844,338.233 L668.366,339.829 L674.283,338.613 L676.152,339.283 L680.543,340.395 L682.506,336.017 L683,328.956 L682.913,307.42 L683.584,300.711 L684.614,297.199 L685.394,294.539 L694.372,278.415 L696.592,271.602 L697.325,265.196 L697.094,258.057 L695.145,243.881 L694.598,242.17 L693.956,241.165 L693.425,239.928 L693.2,237.553 L693.403,235.933 L694.839,231.455 L695.454,227.984 L695.642,224.863 L695.331,221.679 L694.655,216.05 L695.792,215.334 L697.065,213.797 L698.027,212.278 L698.968,210.086 L699.235,207.69 L698.213,205.55 L700.947,200.807 L702.516,199.884 L705.275,199.67 L707.894,200.194 L712.163,202.559 L714.468,203.328 L711.35,199.278 L706.526,197.832 L679.359,198.462 L674.836,196.526 L672.78,191.089 L671.909,176.351 L672.241,172.971 L674.197,166.802 L674.549,163.81 L675.43,161.94 L677.757,161.84 L682.593,162.609 L683.137,160.969 L684.23,160.297 L684.975,158.304 L684.617,155.807 L683.483,154.444 L679.922,152.896 L678.289,151.398 L677.888,148.798 L679.438,146.508 L683.096,143.624 L687.107,138.558 L689.322,136.827 L693.436,131.994 L702.54,127.792 L720.571,124.615 L721.894,125.409 L723.262,127.062 L726.101,127.557 L743.275,122.792 L778.34,115.435 L787.97,117.521 L788.075,119.002 L787.702,124.639 L791.521,131.613 L796.838,137.544 L801.003,140.034 L801.091,141.255 L800.272,143.852 L802.166,144.61 L804.841,145.172 L806.322,147.155 L806.216,150.758 L805.23,152.667 L802.805,154.787 L800.744,156.049 L796.105,156.805 L794.115,158.264 L796.749,164.736 L798.019,167.159 L799.756,168.774 L801.211,167.938 L802.521,167.258 L804.516,167.196 L805.962,167.856 L808.413,170.313 L809.305,170.817 L810.332,171.588 L811.435,173.387 L812.819,175.164 L814.592,175.889 L816.58,175.686 L818.006,175.247 L819.225,174.376 L820.578,172.836 L822.771,168.476 L824.907,161.434 L825.033,154.567 L821.301,150.819 L816.737,152.41 L814.218,152.173 L814.235,149.244 L815.006,145.9 L815.355,139.083 L816.147,136.193 L817.601,134.401 L819.543,133.452 L824.46,132.84 L826.799,133.713 L828.735,136.024 L830.384,138.633 L831.976,140.465 L836.94,142.561 L847.198,143.772 L851.947,145.632 L852.062,147.104 L849.419,149.768 L847.061,153.141 L845.473,157.577 L845.195,163.408 L846.191,174.561 L847.267,179.426 L849.156,182.958 L849.124,178.013 L846.907,165.693 L846.55,159.821 L848.029,155.361 L850.6,153.224 L852.881,150.637 L853.517,144.89 L852.852,143.941 L849.212,136.413 L848.216,135.319 L846.775,132.721 L845.505,129.825 L844.374,126.104 L842.352,121.712 L841.721,118.432 L841.721,115.063 L842.214,112.079 L845.767,100.694 L847.951,88.4697 L849.542,83.0053 L851.025,80.3326 L853.145,77.9427 L855.62,76.175 L858.228,75.3483 L860.688,75.3303 L862.133,75.8329 L865.284,78.8842 L869.74,82.0892 L874.377,84.048 L883.759,85.5719 L888.789,85.007 L897.154,82.1624 L901.892,82.1434 L903.871,79.36 L913.014,76.2605 L922.314,75.5404 L924.194,73.9168 L925.896,74.9811 L927.857,75.1585 L931.826,74.6115 L932.911,75.2159 L935.795,78.382 L949.069,97.6474 L954.313,102.804 L957.871,105.219 L959.684,107.164 L961.848,113.024 L971.064,124.249 L973.025,125.73 L975.31,126.513 L978.161,126.589 L979.7,127.171 L987.181,131.353 L995.322,132.374 L1001.97,133.206 L1003.45,132.411 L1001.73,129.966 L997.04,127.789 L986.319,127.568 L981.826,126.246 L972.789,121.512 L968.498,117.474 L966.529,111.264 L965.683,105.879 L964.903,102.461 L963.623,101.487 L957.806,98.9066 L955.974,98.422 L952.858,96.0484 L949.565,90.3232 L947.127,84.0799 L946.596,80.1257 L942.158,78.8144 L934.163,73.0507 L929.488,70.7278 L925.012,70.0801 L910.07,71.0402 L905.431,69.3535 L902.37,68.7682 L901.078,69.7581 L900.02,71.9009 L897.22,71.2262 L892.828,68.4206 L888.495,63.8816 L877.171,45.0025 L881.501,42.5422 L883.686,42.189 L886.55,42.7312 L891.409,45.4418 L893.994,46.0703 L896.452,44.6317 L897.162,42.3802 L897.778,38.3607 L898.061,34.0437 L897.77,30.9731 L896.237,29.0512 L893.906,27.3028 L892.137,25.4084 L892.278,23.1158 L892.173,21.8785 L889.25,21.2463 L885.24,22.3417 L881.596,24.5039 L879.693,27.0325 L878.904,27.0981 L875.252,21.8067 L872.823,17.5126 L872.411,16.5695 L873.03,12.5119 L874.529,8.93505 L875.482,5.69631 L874.407,2.74803 L874.294,1.38929 L875.634,0.178615 L880.438,-1.65592 L882.429,-2.01848 L883.576,-3.12486 L885.165,-5.75122 L886.715,-9.05887 L887.625,-12.1497 L885.011,-11.4071 L880.953,-7.22909 L878.547,-5.91177 L878.719,-6.59395 L878.932,-8.03699 L879.115,-8.6957 L875.621,-7.98039 L869.712,-5.60912 L866.17,-4.88593 L861.957,-5.2657 L860.217,-4.39932 L856.649,-0.348376 L855.322,0.214749 L852.136,-0.66023 L848.579,-3.42795 L845.827,-7.60408 L845.085,-12.7465 L846.566,-14.9241 L849.625,-16.6263 L853.129,-17.6329 L855.871,-17.7162 L855.761,-19.0751 L853.633,-19.3995 L851.914,-20.7913 L850.345,-21.1535 L848.704,-18.5061 L847.538,-20.6106 L847.698,-22.8784 L848.607,-25.0435 L849.636,-26.7788 L852.198,-25.8699 L861.387,-29.2144 L874.124,-30.2675 L877.001,-31.3064 L879.325,-33.049 L883.852,-37.7972 L888.131,-40.385 L889.936,-42.03 L890.442,-45.3236 L890.039,-50.1362 L886.703,-54.4452 L876.408,-63.8513 L874.887,-65.849 L874.146,-67.9124 L873.007,-68.7453 L870.638,-68.4734 L868.263,-67.5829 L867.043,-66.5692 L866.13,-67.9918 L869.856,-71.0387 L864.931,-81.5084 L863.211,-84.1507 L859.732,-85.9475 L853.063,-90.912 L849.001,-92.5348 L848.89,-93.9017 L849.243,-97.5455 L847.418,-101.468 L844.861,-105.266 L843.041,-108.571 L841.965,-113.752 L842.058,-116.839"/>
   <path fill-rule="evenodd" vector-effect="none" d="M802.512,-113.74 L802.396,-112.875 L802.525,-108.946 L802.25,-108.112 L803.465,-97.2845 L803.434,-93.7183 L803.062,-90.9318 L802.385,-90.2949 L801.416,-93.0288 L800.927,-98.2643 L800.712,-113.604"/>
   <path fill-rule="evenodd" vector-effect="none" d=""/>
   <path fill-rule="evenodd" vector-effect="none" d=""/>
   <path fill-rule="evenodd" vector-effect="none" d=""/>
   <path fill-rule="evenodd" vector-effect="none" d=""/>
   <path fill-rule="evenodd" vector-effect="none" d=""/>
   <path fill-rule="evenodd" vector-effect="none" d=""/>
   <path fill-rule="evenodd" vector-effect="none" d=""/>
   <path fill-rule="evenodd" vector-effect="none" d=""/>
   <path fill-rule="evenodd" vector-effect="none" d=""/>
   <path fill-rule="evenodd" vector-effect="none" d=""/>
   <path fill-rule="evenodd" vector-effect="none" d=""/>
   <path fill-rule="evenodd" vector-effect="none" d=""/>
   <path fill-rule="evenodd" vector-effect="none" d=""/>
   <path fill-rule="evenodd" vector-effect="none" d=""/>
   <path fill-rule="evenodd" vector-effect="none" d=""/>
   <path fill-rule="evenodd" vector-effect="none" d=""/>
   <path fill-rule="evenodd" vector-effect="none" d=""/>
   <path fill-rule="evenodd" vector-effect="none" d=""/>
   <path fill-rule="evenodd" vector-effect="none" d=""/>
   <path fill-rule="evenodd" vector-effect="none" d=""/>
   <path fill-rule="evenodd" vector-effect="none" d="M135.881,664.519 L137.084,673.308 L138.306,677.156 L142.768,682.169 L144.726,685.162 L145.108,689.123 L144.361,690.312 L141.446,693.196 L140.708,695.011 L143.144,703.755 L142.993,705.05 L142.005,707.255 L141.869,708.17 L142.269,708.851 L143.789,709.641 L144.358,710.291 L145.426,712.816 L146.084,713.951 L147.007,714.367 L148.856,714.767 L149.885,714.813 L152.231,714.494 L153.429,714.633 L155.08,715.514 L155.714,716.669 L156.1,718.017 L156.928,719.512 L161.605,724.022 L162.318,725.341 L164.001,729.367 L164.663,730.593 L166.993,732.564 L177.088,737.218 L177.663,737.483 L179.634,737.908 L181.308,736.625 L185.114,730.038 L187.413,727.562 L190.323,725.744 L196.935,723.669 L206.96,720.512 L210.234,721.504 L212.377,723.526 L214.482,727.292 L214.483,727.295 L216.24,730.437 L217.803,734.217 L218.812,735.387 L220.588,735.629 L222.287,736.179 L223.299,738.016 L224.751,742.752 L222.997,746.079 L224.035,751.833 L227.424,763.019 L227.643,769.363 L228.307,771.622 L230.309,774.175 L231.98,775.484 L237.54,778.35 L239.76,778.966 L242.841,778.581 L248.391,776.525 L250.102,775.188 L251.353,773.916 L252.646,773.055 L254.454,772.899 L256.28,773.442 L257.113,774.475 L256.927,776.081 L255.709,778.299 L257.291,779.461 L265.491,779.454 L268.369,780.038 L271.161,781.404 L273.701,783.799 L275.795,787.534 L276.939,795.216 L277.034,804.5 L278.224,812.623 L282.74,816.777 L283.228,815.487 L283.411,815.372 L283.624,815.555 L284.199,815.149 L284.536,814.549 L285.073,812.888 L287.326,808.969 L288.341,807.787 L290.058,807.132 L295.606,806.653 L300.903,807.242 L303.55,808.549 L305.753,810.055 L308.043,811.118 L310.926,811.052 L318.976,807.535 L321.67,807.211 L324.16,808.36 L328.451,812.989 L331.186,814.523 L333.855,816.839 L337.458,824.282 L339.822,825.347 L340.744,824.407 L340.564,823.042 L340.611,821.766 L342.195,821.063 L343.348,821.456 L345.078,822.508 L346.682,823.871 L347.481,825.154 L347.211,827.236 L345.981,828.695 L343.011,831.097 L341.682,833.061 L341.127,834.695 L340.496,838.324 L338.161,846.34 L337.912,849.943 L339.737,850.83 L342.27,849.629 L343.641,849.392 L344.92,850.019 L347.213,858.57 L348.01,860.428 L348.922,861.997 L348.904,863.304 L345.857,864.885 L342.925,867.049 L340.614,869.275 L339.704,870.43 L339.078,871.931 L338.583,874.283 L339.197,874.531 L339.946,877.563 L340.149,880.481 L339.217,880.41 L339.127,880.404 L346.375,884.168 L348.108,884.634 L350.007,884.328 L357.9,883.053 L377.259,887.993 L378.222,888.238 L382.017,887.496 L399.729,878.257 L405.054,877.287 L406.426,876.342 L407.555,874.043 L408.385,870.867 L409.223,864.492 L409.06,863.128 L408.561,862.141 L408.23,860.956 L408.53,858.984 L409.235,857.405 L422.557,843.271 L425.967,841.604 L426.62,844.551 L428.075,845.122 L432.058,844.191 L433.273,845.713 L433.188,849.203 L432.604,853.332 L432.4,856.824 L430.987,855.358 L430.211,855.562 L427.933,860.916 L427.831,862.718 L428.07,864.368 L428.003,866.499 L423.371,878.903 L422.89,882.093 L424.668,884.838 L430.806,887.188 L432.901,890.798 L433.191,893.383 L432.902,895.108 L432.292,896.79 L431.661,899.243 L431.262,900.292 L430.152,901.656 L429.942,902.875 L430.232,903.866 L431.547,905.922 L431.895,907.096 L432.052,914.539 L433.247,916.022 L436.627,916.421 L439.504,915.885 L445.044,913.768 L447.404,913.589 L447.742,913.564 L450.105,914.797 L455.025,919.408 L457.634,920.798 L462.266,921.998 L463.839,923.425 L469.554,931.226 L471.527,933.032 L473.925,934.712 L476.925,935.5 L482.706,933.704 L485.491,933.548 L488.266,936.139 L490.855,939.126 L491.84,942.08 L491.275,942.817 L490.254,943.517 L489.939,946.346 L490.302,948.166 L490.954,948.928 L493.118,949.284 L494.031,948.968 L494.681,947.939 L495.194,946.833 L495.659,946.283 L496.464,946.392 L497.961,947.23 L502.014,948.574 L503.037,949.435 L504.488,950.656 L511.081,961.731 L511.675,963.533 L511.716,965.61 L511.363,967.494 L511.287,969.277 L512.147,971.018 L514.97,971.667 L518.266,969.592 L521.433,966.924 L523.832,965.753 L527.952,967.506 L529.073,967.766 L530.978,967.443 L531.378,966.626 L531.623,965.187 L533.089,963.027 L536.256,961.27 L539.195,961.835 L542.027,963.113 L544.841,963.496 L546.421,962.739 L548.013,960.468 L549.377,959.678 L550.776,959.832 L553.676,961.475 L555.201,961.789 L559.471,967.054 L561.813,969.087 L565.125,970.495 L573.423,972.142 L575.956,974.503 L577.962,980.127 L580.184,979.288 L591.214,978.177 L593.088,977.39 L594.27,975.427 L595.813,974.766 L596.063,973.685 L595.998,972.411 L596.631,971.17 L597.539,970.762 L601.181,970.271 L600.261,968.477 L607.671,967.342 L611.369,967.575 L614.978,968.841 L615.212,969.001 L621.588,973.352 L625.115,975.092 L627.717,975.251 L628.83,975.318 L630.199,974.989 L632.588,973.183 L633.628,972.725 L635.072,972.907 L647.244,978.312 L649.57,980.357 L650.451,981.974 L650.877,983.602 L650.956,984.71 L650.705,984.804 L651.665,986.088 L652.099,986.508 L-127.138,991.965 L-124.256,904.338 L-120.333,903.278 L-115.165,899.969 L-105.003,896.595 L-93.9393,897.078 L-40.5947,881.42 L-37.4117,878.994 L-34.2747,877.992 L-29.0377,872.438 L-12.0435,859.35 L-5.10709,851.123 L-3.58192,849.891 L-2.43322,848.214 L0.631692,837.749 L5.11465,831.944 L9.51055,831.422 L22.031,837.852 L23.2802,837.777 L24.3806,836.711 L24.4048,835.351 L23.0522,835.416 L22.2057,835.085 L21.556,834.223 L20.8769,832.697 L23.4951,832.744 L23.5214,831.271 L21.05,831.177 L18.4895,830.28 L16.5454,828.665 L15.7565,826.415 L14.5794,823.842 L9.17137,821.074 L7.97891,819.415 L8.31138,813.032 L9.53057,805.281 L12.2429,800.038 L15.1514,800.692 L17.101,801.126 L17.1241,799.887 L10.2121,794.208 L10.2383,792.856 L12.6954,786.174 L12.9679,776.825 L13.7635,768.726 L17.7616,765.813 L14.4374,760.47 L13.7997,757.688 L13.4332,748.335 L12.28,739.809 L12.2981,735.695 L12.9939,732.17 L15.8064,724.352 L17.2996,721.456 L18.0693,717.681 L17.3551,713.107 L15.4646,705.734 L15.2205,702.959 L15.2092,701.947 L18.3086,699.568 L19.4031,699.127 L22.0298,698.933 L24.443,698.078 L26.6024,695.931 L30.3269,690.919 L34.258,687.343 L58.4931,677.209 L60.7345,677.704 L65.0616,675.238 L85.2481,672.947 L106.834,666.122 L108.168,665.414 L109.22,665.254 L116.734,666.226 L126.99,663.626 L132.097,661.281 L133.962,659.974 L134,659.944 L135.881,664.519"/>
   <path fill-rule="evenodd" vector-effect="none" d=""/>
   <path fill-rule="evenodd" vector-effect="none" d=""/>
   <path fill-rule="evenodd" vector-effect="none" d=""/>
   <path fill-rule="evenodd" vector-effect="none" d=""/>
   <path fill-rule="evenodd" vector-effect="none" d=""/>
   <path fill-rule="evenodd" vector-effect="none" d="M-63.0942,600.108 L-66.233,601.339 L-80.7316,599.691 L-83.1555,598.67 L-85.2666,596.393 L-86.9356,593.619 L-88.0563,591.178 L-86.2783,585.763 L-85.3609,584.584 L-83.7284,584.188 L-68.4833,589.996 L-67.2884,590.727 L-65.9622,591.835 L-63.4311,594.791 L-62.3078,597.748 L-63.0942,600.108"/>
   <path fill-rule="evenodd" vector-effect="none" d=""/>
   <path fill-rule="evenodd" vector-effect="none" d=""/>
   <path fill-rule="evenodd" vector-effect="none" d=""/>
   <path fill-rule="evenodd" vector-effect="none" d=""/>
   <path fill-rule="evenodd" vector-effect="none" d=""/>
   <path fill-rule="evenodd" vector-effect="none" d=""/>
   <path fill-rule="evenodd" vector-effect="none" d=""/>
   <path fill-rule="evenodd" vector-effect="none" d=""/>
   <path fill-rule="evenodd" vector-effect="none" d=""/>
   <path fill-rule="evenodd" vector-effect="none" d=""/>
   <path fill-rule="evenodd" vector-effect="none" d=""/>
   <path fill-rule="evenodd" vector-effect="none" d=""/>
   <path fill-rule="evenodd" vector-effect="none" d=""/>
   <path fill-rule="evenodd" vector-effect="none" d=""/>
   <path fill-rule="evenodd" vector-effect="none" d=""/>
   <path fill-rule="evenodd" vector-effect="none" d=""/>
   <path fill-rule="evenodd" vector-effect="none" d=""/>
   <path fill-rule="evenodd" vector-effect="none" d=""/>
   <path fill-rule="evenodd" vector-effect="none" d=""/>
   <path fill-rule="evenodd" vector-effect="none" d=""/>
   <path fill-rule="evenodd" vector-effect="none" d=""/>
   <path fill-rule="evenodd" vector-effect="none" d=""/>
   <path fill-rule="evenodd" vector-effect="none" d=""/>
   <path fill-rule="evenodd" vector-effect="none" d=""/>
   <path fill-rule="evenodd" vector-effect="none" d=""/>
   <path fill-rule="evenodd" vector-effect="none" d=""/>
   <path fill-rule="evenodd" vector-effect="none" d=""/>
   <path fill-rule="evenodd" vector-effect="none" d=""/>
   <path fill-rule="evenodd" vector-effect="none" d=""/>
   <path fill-rule="evenodd" vector-effect="none" d=""/>
   <path fill-rule="evenodd" vector-effect="none" d=""/>
   <path fill-rule="evenodd" vector-effect="none" d=""/>
   <path fill-rule="evenodd" vector-effect="none" d=""/>
   <path fill-rule="evenodd" vector-effect="none" d="M-103.286,282.912 L-98.1098,280.684 L-91.6053,279.637 L-85.7868,280.071 L-86.638,278.56 L-84.1653,277.74 L-81.5369,278.457 L-78.8851,279.685 L-76.343,280.373 L-66.1072,280.687 L-61.3634,282.077 L-55.9657,284.926 L-50.3134,286.515 L-44.7751,284.149 L-46.0113,283.199 L-47.4238,282.617 L-48.9244,282.388 L-50.4837,282.506 L-50.4451,281.146 L-13.5877,291.123 L0.837507,298.976 L30.2819,322.6 L33.7244,326.675 L36.4952,331.634 L38.5987,341.086 L40.7115,346.924 L42.1956,352.806 L41.3331,357.028 L42.0195,360.102 L42.1782,364.034 L41.9157,371.199 L44.6212,380.577 L44.0964,382.35 L42.5207,384.235 L39.283,394.483 L39.3581,396.412 L39.0471,398.318 L33.3974,412.507 L29.3959,419.481 L28.0576,420.914 L26.7236,423.149 L26.3488,428.245 L26.4976,437.216 L25.7675,441.066 L23.4258,447.874 L22.8782,451.469 L21.0194,456.811 L20.7663,459.561 L20.0965,460.641 L10.3738,464.529 L8.25782,466.867 L6.47068,465.396 L5.79722,467.018 L5.38364,469.569 L4.36677,470.868 L3.5126,471.555 L0.445777,476.09 L-8.36561,485.414 L-9.80716,487.609 L-11.201,488.128 L-19.2908,477.131 L-22.891,475.862 L-28.8651,470.78 L-32.2046,470.016 L-32.239,471.376 L-27.9663,475.64 L-25.4532,477.565 L-19.8462,479.022 L-18.5719,479.709 L-18.0532,480.62 L-18.2193,483.824 L-18.6605,484.697 L-21.1366,484.006 L-22.592,484.165 L-25.2343,484.96 L-26.6996,485.102 L-28.2303,484.651 L-31.6044,482.273 L-34.3401,482.398 L-40.3646,484.252 L-43.4996,484.672 L-40.2977,486.287 L-19.8433,488.112 L-17.356,486.689 L-17.8743,490.395 L-27.8331,500.16 L-26.2989,501.397 L-24.395,502.294 L-19.9096,503.074 L-18.6066,501.85 L-17.6362,499.831 L-17.0898,499.625 L-16.988,503.824 L-18.5263,506.931 L-25.7278,513.32 L-32.1796,517.463 L-36.2197,519.053 L-44.8916,520.108 L-47.2028,519.698 L-48.3305,518.646 L-50.189,514.537 L-54.0525,508.913 L-55.0827,506.235 L-55.5285,509.998 L-57.4351,512.101 L-62.0554,514.207 L-65.9634,517.668 L-66.8816,518.136 L-66.9834,519.219 L-67.4141,521.589 L-68.046,523.953 L-68.7209,525.019 L-70.1785,525.325 L-72.2103,527.015 L-73.4951,527.585 L-75.0026,527.516 L-77.6921,526.268 L-78.8796,525.941 L-81.936,526.188 L-87.7161,528.254 L-90.5224,529.787 L-88.6211,530.795 L-86.3774,531.164 L-84.3277,532.281 L-83.0056,535.466 L-79.3983,532.1 L-71.4403,530.595 L-67.6226,529.119 L-63.9793,526.306 L-61.7862,525.956 L-59.9216,527.977 L-59.7377,529.668 L-60.1444,531.601 L-60.6995,533.077 L-60.9903,533.392 L-60.7834,534.978 L-60.3545,536.554 L-59.4562,539.002 L-60.7346,540.036 L-61.2458,541.723 L-61.3562,546.347 L-61.8096,547.404 L-62.8251,548.363 L-64.7599,549.718 L-61.4073,549.586 L-60.2373,550.308 L-59.7989,551.22 L-63.348,556.832 L-69.8596,562.39 L-75.5452,565.732 L-77.0673,566.618 L-82.7055,568.223 L-92.482,566.315 L-95.9233,566.457 L-96.001,566.357 L-97.6353,566.256 L-98.1229,566.33 L-98.4479,566.376 L-98.6193,566.678 L-101.097,568.884 L-102.945,569.431 L-104.614,569.45 L-106.234,569.809 L-107.955,571.381 L-109.892,569.404 L-110.58,569.43 L-113.07,569.495 L-113.249,574.79 L-112.29,574.559 L-92.5103,578.122 L-90.7308,579.474 L-89.2718,582.356 L-89.1792,584.263 L-90.4578,585.317 L-93.0489,585.576 L-97.4797,584.439 L-99.4146,584.45 L-103.464,588.111 L-108.056,589.062 L-110.373,590.46 L-109.448,591.61 L-108.643,593.022 L-107.761,594.243 L-106.603,594.792 L-95.9054,595.138 L-90.8423,596.659 L-91.7619,594.288 L-92.2428,591.518 L-91.5647,589.61 L-88.9457,589.789 L-88.7815,592.339 L-87.5369,596.024 L-85.8741,599.341 L-84.5492,600.799 L-58.1264,604.597 L-42.5899,600.224 L-2.29429,597.429 L0.706231,599.323 L-0.56756,605.825 L-1.04067,607.079 L-1.65416,608.248 L-2.38484,609.196 L-3.21049,609.835 L-7.65329,609.714 L-8.33841,610.403 L-8.05737,614.686 L-7.22764,618.058 L-5.29129,623.382 L-4.36441,631.292 L-5.56659,638.872 L-8.25008,645.155 L-11.7535,649.193 L-20.1851,651.884 L-23.6819,654.443 L-25.1024,654.555 L-27.8085,654.256 L-29.31,654.762 L-30.5741,655.987 L-31.6792,657.37 L-32.6622,658.342 L-35.1764,659.317 L-43.3926,659.312 L-45.8581,659.92 L-48.4429,661.562 L-53.492,665.957 L-60.1705,675.174 L-61.4814,677.471 L-61.2962,682.629 L-60.1572,690.365 L-64.5659,691.993 L-73.9545,688.592 L-82.3644,685.541 L-87.4169,687.042 L-100.127,698.714 L-105.263,700.86 L-117.565,703.075"/>
   <path fill-rule="evenodd" vector-effect="none" d=""/>
   <path fill-rule="evenodd" vector-effect="none" d=""/>
   <path fill-rule="evenodd" vector-effect="none" d=""/>
   <path fill-rule="evenodd" vector-effect="none" d=""/>
   <path fill-rule="evenodd" vector-effect="none" d=""/>
   <path fill-rule="evenodd" vector-effect="none" d=""/>
   <path fill-rule="evenodd" vector-effect="none" d=""/>
   <path fill-rule="evenodd" vector-effect="none" d=""/>
   <path fill-rule="evenodd" vector-effect="none" d=""/>
   <path fill-rule="evenodd" vector-effect="none" d=""/>
   <path fill-rule="evenodd" vector-effect="none" d=""/>
   <path fill-rule="evenodd" vector-effect="none" d=""/>
   <path fill-rule="evenodd" vector-effect="none" d=""/>
   <path fill-rule="evenodd" vector-effect="none" d=""/>
   <path fill-rule="evenodd" vector-effect="none" d=""/>
   <path fill-rule="evenodd" vector-effect="none" d=""/>
   <path fill-rule="evenodd" vector-effect="none" d=""/>
   <path fill-rule="evenodd" vector-effect="none" d="M582.367,839.087 L585.254,838.506 L586.335,837.771 L587.117,836.854 L588.102,836.679 L589.819,838.204 L590.45,840.01 L590.383,841.897 L590.739,843.458 L592.678,844.232 L591.913,847.147 L591.405,849.907 L590.83,855.532 L591.061,855.666 L591.826,855.562 L592.119,855.591 L591.669,856.259 L590.575,858.631 L591.998,859.375 L592.9,860.975 L593.868,865.094 L593.602,867.319 L594.226,868.909 L596.581,872.188 L598.765,877.697 L599.86,879.391 L601.124,876.599 L603.478,880.072 L608.135,890.066 L610.228,892.015 L614.67,893.768 L616.597,894.898 L617.256,895.961 L617.836,897.32 L618.697,899.337 L618.859,899.999 L619.9,900.046 L621.776,898.789 L622.907,898.769 L625.149,900.049 L629.005,903.408 L631.249,904.697 L633.525,905.212 L639.698,904.928 L643.717,905.916 L644.224,905.923 L644.951,906.641 L644.909,906.602 L644.642,906.893 L644.707,908.568 L644.527,908.711 L644.117,913.066 L644.169,914.475 L644.557,915.342 L644.539,916.116 L643.338,917.274 L643.328,919.056 L643.696,920.666 L644.376,922.066 L645.353,923.257 L644.213,922.867 L643.627,923.193 L643.232,924.179 L644.159,925.156 L644.432,925.576 L635.233,932.158 L633.359,935.055 L633.616,935.702 L634.469,936.23 L635.292,936.965 L635.472,938.275 L635.165,939.185 L634.256,940.668 L633.069,943.42 L629.89,947.724 L628.076,950.874 L627.438,953.096 L627.719,959.396 L627.552,961.32 L626.992,967.78 L627.661,973.784 L627.717,975.251 L625.115,975.092 L621.588,973.352 L615.212,969.001 L614.978,968.841 L611.369,967.575 L607.671,967.342 L600.261,968.477 L601.181,970.271 L597.539,970.762 L596.631,971.17 L595.998,972.411 L596.063,973.685 L595.813,974.766 L594.27,975.427 L593.088,977.39 L591.214,978.177 L580.184,979.288 L577.962,980.127 L575.956,974.503 L573.423,972.142 L565.125,970.495 L561.813,969.087 L559.471,967.054 L555.201,961.789 L558.223,960.205 L561.073,956.918 L562.185,953.767 L559.948,952.647 L561.353,951.215 L562.306,949.182 L563.788,944.535 L564.77,943.283 L566.007,942.042 L566.661,940.287 L565.832,937.488 L564.868,936.733 L562.268,936.533 L561.362,935.899 L560.853,934.456 L561.013,933.74 L561.375,933.088 L561.393,931.79 L561.551,930.683 L562.151,929.95 L562.6,929.109 L562.437,928.045 L562.368,927.595 L561.577,926.441 L560.735,926.411 L559.919,926.72 L559.194,926.614 L558.405,926.211 L556.585,925.734 L555.734,925.097 L555.77,924.632 L555.386,921.868 L555.151,920.94 L551.891,915.05 L550.993,913.817 L549.318,912.87 L547.925,912.685 L546.598,912.095 L545.158,909.883 L544.282,907.414 L544.01,905.047 L544.512,903.124 L546.004,902.041 L544.726,900.934 L544.925,900.207 L545.148,899.735 L545.312,899.132 L545.257,897.982 L548.645,898.207 L547.383,896.442 L544.46,894.377 L542.919,893.703 L543.369,891.793 L547.534,883.911 L548.005,882.627 L548.273,881.609 L548.712,880.553 L549.671,879.179 L550.55,878.539 L552.43,878.027 L553.454,876.99 L554.757,874.203 L554.198,873.123 L553.255,872.046 L553.298,869.296 L554.053,868.208 L556.607,866.959 L557.496,865.937 L557.755,864.352 L557.683,862.481 L557.45,860.184 L558.171,858.921 L559.975,857.226 L560.713,856.066 L560.978,854.697 L561.106,851.459 L561.52,850.177 L563.561,848.163 L568.229,845.644 L570.054,843.586 L570.959,840.688 L571.379,837.943 L572.389,836.06 L575.098,835.664 L577.002,834.012 L577.857,834.874 L578.356,836.758 L579.194,838.186 L580.346,838.69 L580.918,838.94 L582.367,839.087"/>
   <path fill-rule="evenodd" vector-effect="none" d=""/>
   <path fill-rule="evenodd" vector-effect="none" d=""/>
   <path fill-rule="evenodd" vector-effect="none" d=""/>
   <path fill-rule="evenodd" vector-effect="none" d="M285.411,606.303 L288.079,607.409 L293.109,607.356 L297.87,608.664 L300.877,608.192 L312.979,602.803 L314.625,600.813 L315.242,596.837 L316.403,595.056 L319.088,595.149 L322.011,596.226 L323.82,597.334 L324.658,598.569 L326.101,601.65 L327.223,602.849 L328.619,603.306 L331.636,603.666 L332.898,604.668 L333.704,604.979 L338.018,605.269 L340.106,602.02 L340.885,601.271 L343.322,601.506 L346.08,603.062 L346.028,603.895 L345.178,608.543 L344.515,610.534 L339.713,617.323 L333.598,622.289 L318.236,630.306 L312.6,634.849 L309.808,635.785 L295.018,636.144 L293.461,635.477 L291.577,633.287 L291.348,631.212 L291.531,628.999 L290.858,626.399 L288.48,624.871 L273.172,619.94 L269.982,619.448 L266.902,619.653 L261.945,620.807 L259.947,620.94 L258.118,621.411 L256.761,622.829 L256.544,625.129 L256.884,627.646 L256.536,629.53 L250.629,630.494 L246.637,630.05 L243.739,628.73 L242.844,628.323 L239.795,625.012 L238.003,620.023 L238.071,615.385 L238.562,610.446 L237.447,602.788 L237.452,602.787 L257.515,596.158 L259.348,594.623 L261.29,594.382 L269.211,599.43 L281.382,602.795 L285.411,606.303"/>
   <path fill-rule="evenodd" vector-effect="none" d="M319.487,537.043 L320.106,538.079 L320.906,539.137 L322.158,540.164 L327.344,541.531 L329.715,543.164 L330.015,546.366 L328.765,548.394 L326.751,549.841 L324.566,550.723 L315.077,552.718 L312.878,552.634 L308.25,550.976 L305.556,549.115 L304.334,546.441 L303.518,543.892 L301.546,542.377 L296.67,540.49 L295.836,539.698 L295.049,538.638 L294.003,537.799 L292.351,537.696 L289.34,541.372 L288.623,542.06 L283.078,542.432 L280.534,541.704 L278.86,539.315 L279.142,532.874 L283.608,529.907 L293.998,528.291 L294.509,528.099 L296.531,528.263 L298.17,529.135 L310.018,529.322 L312.76,529.894 L314.792,531.422 L319.487,537.043"/>
   <path fill-rule="evenodd" vector-effect="none" d="M420.607,254.424 L420.639,255.663 L423.096,255.598 L422.327,258.228 L420.849,261.371 L417.647,266.617 L412.115,271.427 L409.551,276.759 L405.535,278.05 L401.272,276.412 L398.855,271.413 L399.473,266.188 L401.702,260.243 L404.558,255.344 L410.088,250.32 L412.76,244.28 L415.631,239.279 L419.391,239.383 L419.908,240.536 L420.208,241.549 L420.145,242.499 L419.499,243.465 L421.266,246.181 L422.587,249.68 L422.641,252.814 L420.607,254.424"/>
   <path fill-rule="evenodd" vector-effect="none" d="M425.153,231.408 L422.173,234.179 L418.395,232.602 L423.275,225.932 L430.864,218.503 L438.832,213.536 L444.86,214.188 L444.9,215.548 L441.718,215.641 L440.249,216.543 L436.813,217.971 L427.651,227.442 L425.153,231.408"/>
   <path fill-rule="evenodd" vector-effect="none" d="M482.609,193.704 L477.393,196.223 L473.198,197.448 L456.934,205.247 L453.54,205.27 L451.995,202.302 L453.227,198.836 L459.529,196.396 L461.578,194.394 L464.29,194.381 L480.149,190.577 L482.041,188.956 L483.595,187.687 L501.092,183.658 L498.465,187.596 L495.142,188.898 L488.226,189.425 L488.481,190.097 L488.813,191.545 L489.069,192.241 L487.54,193.121 L482.609,193.704"/>
   <path fill-rule="evenodd" vector-effect="none" d="M653.51,180.61 L658.411,196.799 L659.045,197.024 L662.046,198.938 L662.296,199.42 L662.892,199.825 L663.534,200.723 L664.409,201.6 L668.24,202.646 L673.142,205.091 L675.217,204.276 L676.29,205.368 L677.747,205.667 L679.13,205.19 L680.084,203.999 L680.898,203.952 L680.976,205.312 L680.073,206.192 L679.632,206.818 L679.71,207.674 L680.387,209.309 L680.823,212.507 L684.563,214.38 L693.314,216.113 L694.655,216.05 L695.331,221.679 L695.642,224.863 L695.454,227.984 L694.839,231.455 L693.403,235.933 L693.2,237.553 L693.425,239.928 L693.956,241.165 L694.598,242.17 L695.145,243.881 L697.094,258.057 L697.325,265.196 L696.592,271.602 L694.372,278.415 L685.394,294.539 L684.614,297.199 L683.584,300.711 L682.913,307.42 L683,328.956 L682.506,336.017 L680.543,340.395 L676.152,339.283 L674.283,338.613 L668.366,339.829 L661.844,338.233 L650.373,339.027 L646.387,340.498 L644.295,342.189 L642.28,343.818 L643.401,345.847 L643.255,347.643 L642.789,349.322 L642.912,350.975 L643.83,352.211 L647.975,355.372 L641.421,359.127 L639.424,359.409 L641.075,362.453 L641.683,365.983 L642.038,369.479 L642.931,372.407 L645.473,375.08 L648.756,376.482 L658.449,377.34 L664.859,379.411 L668.32,379.786 L671.5,379.403 L674.492,378.342 L675.564,377.211 L676.245,375.834 L676.991,375.432 L685.062,387.073 L687.059,392.091 L686.433,399.4 L684.306,405.221 L683.59,408.271 L683.717,411.919 L685.038,416.109 L685.827,417.39 L686.165,417.938 L685.881,418.98 L680.635,422.59 L679.406,424.199 L676.793,429.023 L674.472,431.324 L669.35,433.909 L667.106,436.529 L664.693,442.203 L663.224,443.698 L656.029,444.894 L655.334,445.009 L653.429,446.21 L651.464,448.481 L650.876,449.645 L650.006,452.23 L649.081,453.53 L647.649,454.345 L646.362,454.503 L645.286,455.084 L644.542,457.198 L644.949,460.218 L646.972,461.501 L649.701,462.161 L657.95,466.239 L661.298,469.435 L661.984,470.362 L662.359,471.688 L662.372,474.125 L661.781,474.764 L660.85,474.978 L659.904,476.135 L657.361,481.38 L654.677,484.945 L651.438,486.92 L640.562,487.82 L628.517,492.617 L622.683,497.565 L620.69,498.588 L618.181,498.707 L610.178,496.738 L611.393,501.178 L610.975,503.186 L606.41,504.69 L605.898,501.607 L603.845,500.532 L599.088,500.027 L598.497,499.369 L597.024,496.984 L596.108,496.17 L595.084,496.092 L591.277,497.111 L587.039,495.583 L582.942,492.543 L578.891,490.838 L574.803,493.289 L576.379,494.386 L581.182,499.021 L582.95,501.56 L580.942,501.153 L578.007,500.532 L573.963,499.633 L569.002,501.197 L567.272,502.216 L564.803,504.219 L562.462,505.335 L557.466,506.434 L555.473,507.972 L555.124,509.762 L558.015,511.803 L559.817,515.586 L559.763,519.615 L557.832,521.699 L557.13,522.456 L557.114,524.598 L558.36,525.047 L561.944,524.819 L563.389,525.44 L566.234,527.418 L567.512,528.632 L566.084,534.335 L569.072,537.836 L577.604,541.17 L576.347,545.683 L575.801,548.553 L576.442,550.972 L585.179,561.98 L590.432,567.55 L591.603,574.029 L592.364,577.611 L592.087,581.568 L591.321,585.84 L591.313,589.512 L593.289,591.676 L592.645,593.455 L592.45,597.831 L591.888,600.337 L590.728,602.144 L587.655,604.491 L586.409,605.827 L580.517,617.906 L578.02,621.229 L576.834,623.477 L575.928,627.485 L575.751,631.941 L576.795,635.579 L579.798,637.091 L585.846,632.545 L588.757,633.409 L587.787,634.033 L585.031,636.494 L587.76,638.833 L586.003,641.385 L579.039,645.556 L567.826,655.121 L566.221,657.132 L564.014,662.292 L562.539,664.05 L560.241,664.388 L558.508,662.923 L556.941,661.044 L555.167,660.135 L551.726,662.122 L552.62,666.752 L554.775,672.397 L555.101,677.409 L556.801,676.993 L559.996,675.25 L561.677,674.7 L563.426,674.867 L566.767,675.824 L571.249,675.097 L571.551,676.125 L570.853,677.831 L570.44,679.506 L570.738,682.367 L571.128,683.937 L572.132,684.956 L575.171,686.696 L579.338,687.955 L579.124,688.767 L578.506,689.874 L578.326,691.199 L579.562,695.246 L579.589,696.831 L578.906,698.908 L577.57,700.652 L574.722,700.522 L573.032,701.58 L572.006,703.619 L572.193,705.331 L572.541,707.15 L571.973,709.541 L570.23,711.311 L568.295,710.905 L568.932,713.432 L569.964,715.059 L571.25,715.882 L572.121,717.062 L571.952,719.663 L569.428,720.239 L560.259,720.305 L558.869,719.923 L558.865,719.922 L557.407,719.521 L546.475,720.218 L545.15,719.362 L542.461,716.611 L541.178,716.175 L540.089,717.081 L538.805,719.17 L538.217,720.125 L536.91,720.441 L535.53,720.213 L533.187,718.981 L534.324,714.369 L534.46,712.017 L532.471,711.503 L529.701,710.296 L528.949,709.81 L526.79,708.414 L524.637,705.454 L524.205,701.013 L532.919,690.539 L534.354,689.899 L535.791,689.322 L536.371,688.816 L537.905,686.31 L539.902,681.603 L541.253,679.123 L540.005,678.438 L538.797,678.453 L536.02,679.317 L540.671,671.228 L542.473,666.301 L540.688,664.052 L540.887,661.404 L541.449,659.452 L542.449,658.781 L543.961,659.98 L544.858,658.654 L545.49,657.214 L546.319,654.449 L545.939,653.661 L545.721,653.062 L545.355,651.634 L546.734,651.731 L548.072,651.474 L549.321,650.911 L550.443,650.09 L547.478,647.147 L547.792,644.859 L549.484,643.049 L549.137,642.105 L547.927,639.614 L545.787,639.526 L541.984,640.649 L540.263,639.308 L537.516,635.798 L535.429,634.65 L533.82,634.54 L528.626,635.812 L526.481,635.91 L525.089,634.988 L523.838,633.648 L522.103,632.516 L514.948,630.628 L512.765,628.888 L512.009,628.286 L511.452,623.776 L510.429,619.951 L508.016,617.008 L505.025,615.257 L502.32,615.04 L499.897,616.31 L494.783,620.18 L492.208,621.226 L477.416,621.073 L473.543,622.168 L472.742,622.395 L470.532,621.901 L470.254,614.819 L467.978,612.098 L465.664,611.936 L460.857,612.499 L458.67,611.369 L458.026,610.086 L456.624,605.732 L455.918,604.024 L451.496,599.395 L450.644,597.485 L450.96,593.164 L452.259,589.943 L452.602,586.619 L450.029,582.026 L446.235,579.652 L445.875,579.188 L443.975,579.735 L443.263,580.953 L442.89,582.815 L442.096,585.286 L440.242,588.557 L437.48,592.521 L434.422,595.663 L431.753,596.474 L426.884,594.382 L424.579,593.823 L415.865,593.741 L413.2,592.664 L413.85,590.256 L415.246,590.016 L420.735,592.418 L419.749,588.98 L420.227,585.953 L420.927,583.081 L420.582,580.085 L419.256,578.431 L417.142,577.109 L414.862,576.301 L413.06,576.169 L409.016,578.38 L399.678,590.422 L398.414,591.407 L396.757,592.082 L394.831,592.253 L390.836,591.338 L387.262,592.072 L385.613,591.953 L383.199,590.296 L383.39,588.348 L384.392,585.847 L384.49,582.517 L383.466,580.877 L381.893,580.622 L378.233,581.304 L371.615,583.894 L365.186,587.818 L366.721,589.44 L366.491,590.864 L365.71,592.432 L365.658,594.449 L366.656,596.22 L369.512,599.499 L370.309,601.438 L369.757,604.879 L367.412,606.184 L361.597,605.917 L359.174,605.138 L354.624,602.766 L353.505,602.747 L351.005,602.704 L350.499,602.091 L349.456,599.776 L349.08,597.353 L349.106,595.303 L348.837,593.761 L347.556,592.883 L346.13,594.803 L343.409,595.674 L332.212,595.526 L329.617,594.707 L327.083,593.205 L320.155,587.351 L318.11,586.545 L312.913,586.08 L311.197,587.18 L307.59,594.214 L306.208,596.288 L304.306,597.332 L299.834,597.871 L298.246,598.909 L296.911,599.159 L295.567,598.567 L292.124,595.009 L284.583,591.379 L279.68,586.754 L277.725,586.553 L272.592,588.526 L269.79,588.679 L262.734,587.132 L260.489,585.934 L258.578,583.13 L256.897,579.967 L255.385,577.67 L251.279,574.101 L249.912,571.972 L249.397,568.744 L250.688,566.922 L263.389,558.963 L296.624,555.043 L299.381,555.4 L301.249,556.448 L303.268,558.278 L305.073,560.702 L306.259,563.586 L304.964,564.129 L302.872,565.588 L302.053,566.359 L302.068,567.589 L313.958,568.687 L320.02,571.051 L325.206,575.448 L326.888,578.533 L329.437,585.364 L331.316,587.83 L334.304,588.651 L340.767,587.65 L343.226,588.873 L345.672,588.031 L349.724,588.165 L351.094,587.769 L353.491,587.072 L355.09,582.5 L354.003,578.218 L351.359,575.049 L347.849,573.076 L346.693,572.885 L342.235,572.157 L337.067,569.956 L335.156,569.824 L331.234,570.354 L329.371,570.074 L326.356,568.337 L316.416,559.268 L322.949,556.043 L326.222,555.072 L337.322,555.454 L340.575,556.39 L343.53,558.812 L343.582,558.86 L342.945,555.121 L341.347,553.64 L340.873,553.624 L335.98,553.491 L334.652,553.002 L333.399,552.171 L332.393,550.995 L331.742,549.272 L331.324,546.995 L331.259,544.72 L331.606,543.022 L333.19,541.24 L335.31,540.308 L339.513,539.901 L338.182,538.562 L335.027,536.376 L326.385,533.867 L324.567,531.285 L323.688,524.689 L321.549,520.589 L318.528,517.91 L315.001,515.553 L312.695,517.333 L309.575,518.346 L306.392,518.378 L303.99,519.088 L303.548,519.903 L302.676,520.076 L301.5,520.049 L300.29,514.532 L303.844,512.06 L311.55,509.597 L312.584,508.15 L314.989,507.932 L319.124,508.815 L322.582,510.629 L323.095,510.727 L324.006,510.608 L325.282,510.015 L326.768,508.705 L325.808,506.897 L322.607,502.61 L321.765,501.942 L321.042,501.134 L320.744,499.899 L320.993,498.341 L321.548,497.239 L322.108,496.446 L322.369,495.81 L321.925,492.755 L319.472,484.974 L318.055,481.649 L318.724,480.133 L319.545,478.793 L325.283,479.99 L330.02,479.134 L334.177,476.34 L351.34,454.685 L365.89,432.414 L377.795,409.694 L384.696,387.867 L385.632,382.208 L385.6,380.742 L387.87,375.588 L392.141,336.845 L394.059,326.941 L394.324,323.928 L395.339,317.674 L400.118,304.314 L401.128,297.75 L401.167,294.054 L401.533,289.305 L402.334,285.186 L403.681,283.419 L411.102,284.386 L412.266,283.206 L413.204,284.665 L411.558,290.793 L414.459,294.357 L419.432,295.696 L424.154,295.247 L426.844,293.619 L431.832,289.042 L434.302,288.05 L439.078,287.283 L443.733,285.059 L467.242,262.646 L468.941,260.501 L471.105,258.559 L476.591,257.083 L478.976,255.407 L481.267,250.41 L484.08,236.711 L486.304,230.547 L490.332,225.495 L492.836,223.122 L497.158,221.064 L499.087,218.716 L500.853,215.937 L502.926,213.64 L505.311,212.694 L510.978,211.52 L515.003,207.76 L533.774,199.31 L537.94,196.061 L540.661,195.723 L548.467,191.28 L559.919,190.226 L572.827,189.245 L583.261,188.439 L584.519,188.803 L586.696,190.585 L587.857,190.953 L588.857,190.566 L591.775,188.044 L609.215,182.014 L637.003,176.23 L648.85,177.606 L651.366,178.607 L653.51,180.61"/>
   <path fill-rule="evenodd" vector-effect="none" d="M539.951,178.12 L544.897,180.463 L533.254,183.662 L521.034,184.143 L518.01,185.07 L512.394,187.919 L509.35,187.311 L507.16,184.416 L507.748,181.467 L509.695,179.7 L511.522,180.418 L539.951,178.12"/>
   <path fill-rule="evenodd" vector-effect="none" d="M568.409,177.914 L566.185,181.046 L565.434,179.821 L565.368,179.191 L566.06,178.196 L564.694,175.522 L567.562,172.759 L571.915,170.57 L575.007,169.636 L586.705,168.045 L590.065,168.943 L590.129,170.303 L588.507,170.379 L568.409,177.914"/>
   <path fill-rule="evenodd" vector-effect="none" d="M603.392,158.488 L610.051,161.051 L609.519,161.045 L609.097,161.309 L608.756,161.837 L608.504,162.605 L604.2,161.387 L602.043,160.169 L601.758,158.86 L603.392,158.488"/>
  </g>
  <g stroke-opacity="1" fill="none" font-family=".SF NS Text" stroke="#000000" stroke-linejoin="bevel" font-style="normal" stroke-linecap="square" font-weight="400" stroke-width="1" transform="matrix(11.8081,0,0,11.8081,569.021,688.98)" font-size="54.1667"/>
  <g stroke-opacity="1" fill="none" font-family=".SF NS Text" stroke="#000000" stroke-linejoin="bevel" font-style="normal" stroke-linecap="square" font-weight="400" stroke-width="1" transform="matrix(11.8081,0,0,11.8081,569.021,688.98)" font-size="54.1667"/>
  <g stroke-opacity="1" fill="none" font-family=".SF NS Text" stroke="#000000" stroke-linejoin="bevel" font-style="normal" stroke-linecap="square" font-weight="400" stroke-width="1" transform="matrix(11.8081,0,0,11.8081,569.021,688.98)" font-size="54.1667"/>
  <g stroke-opacity="1" fill="none" font-family=".SF NS Text" stroke="#000000" stroke-linejoin="bevel" font-style="normal" stroke-linecap="square" font-weight="400" stroke-width="1" transform="matrix(1,0,0,1,0,0)" font-size="54.1667"/>
  <g stroke-opacity="1" fill="none" font-family=".SF NS Text" stroke="#000000" stroke-linejoin="bevel" font-style="normal" stroke-linecap="square" font-weight="400" stroke-width="1" transform="matrix(11.8081,0,0,11.8081,569.021,688.98)" font-size="54.1667"/>
  <g stroke-opacity="1" fill="none" font-family=".SF NS Text" stroke="#000000" stroke-linejoin="bevel" font-style="normal" stroke-linecap="square" font-weight="400" stroke-width="1" transform="matrix(11.8081,0,0,11.8081,569.021,688.98)" font-size="54.1667"/>
  <g stroke-opacity="1" fill="none" font-family=".SF NS Text" stroke="#000000" stroke-linejoin="bevel" font-style="normal" stroke-linecap="square" font-weight="400" stroke-width="1" transform="matrix(11.8081,0,0,11.8081,0,0)" font-size="54.1667"/>
  <g stroke-opacity="1" fill="none" font-family=".SF NS Text" stroke="#000000" stroke-linejoin="bevel" font-style="normal" stroke-linecap="square" font-weight="400" stroke-width="1" transform="matrix(11.8081,0,0,11.8081,0,0)" font-size="54.1667"/>
  <g stroke-opacity="1" fill="none" font-family=".SF NS Text" stroke="#000000" stroke-linejoin="bevel" font-style="normal" stroke-linecap="square" font-weight="400" stroke-width="1" transform="matrix(1,0,0,1,0,0)" font-size="54.1667"/>
 </g>
 <defs/>
 <g fill="none" inkscape:label="Layer 4" inkscape:groupmode="layer" stroke="black" fill-rule="evenodd" stroke-linejoin="bevel" stroke-linecap="square" id="Layer 4" stroke-width="1">
  <g stroke-opacity="1" fill="none" font-family=".SF NS Text" stroke="#000000" stroke-linejoin="bevel" font-style="normal" stroke-linecap="square" font-weight="400" stroke-width="1" transform="matrix(1,0,0,1,0,0)" font-size="54.1667"/>
  <g stroke-opacity="1" fill="none" font-family=".SF NS Text" stroke="#000000" stroke-linejoin="bevel" font-style="normal" stroke-linecap="square" font-weight="400" stroke-width="1" transform="matrix(11.8081,0,0,11.8081,569.021,688.98)" font-size="54.1667"/>
  <g stroke-opacity="1" fill="none" font-family=".SF NS Text" stroke="#000000" stroke-linejoin="bevel" font-style="normal" stroke-linecap="square" font-weight="400" stroke-width="1" transform="matrix(11.8081,0,0,11.8081,569.021,688.98)" font-size="54.1667"/>
  <g fill="#000000" font-family=".SF NS Text" stroke="none" font-style="normal" fill-opacity="0" font-weight="400" transform="matrix(0.999751,0,0,0.999751,569.021,688.98)" font-size="54.1667">
   <path fill-rule="evenodd" vector-effect="non-scaling-stroke" d="M0,0 L936,0 L936,878 L0,878 L0,0"/>
  </g>
  <g stroke-opacity="1" fill="none" font-family=".SF NS Text" stroke="#000000" stroke-linejoin="bevel" font-style="normal" stroke-linecap="square" font-weight="400" stroke-width="1" transform="matrix(11.8081,0,0,11.8081,569.021,688.98)" font-size="54.1667"/>
  <g stroke-opacity="1" fill="none" font-family=".SF NS Text" stroke="#000000" stroke-linejoin="bevel" font-style="normal" stroke-linecap="square" font-weight="400" stroke-width="1" transform="matrix(11.8081,0,0,11.8081,569.021,688.98)" font-size="54.1667"/>
  <g stroke-opacity="1" fill="none" font-family=".SF NS Text" stroke="#000000" stroke-linejoin="bevel" font-style="normal" stroke-linecap="square" font-weight="400" stroke-width="1" transform="matrix(11.8081,0,0,11.8081,569.021,688.98)" font-size="54.1667"/>
  <g stroke-opacity="1" fill="none" font-family=".SF NS Text" stroke="#000000" stroke-linejoin="bevel" font-style="normal" stroke-linecap="square" font-weight="400" stroke-width="1" transform="matrix(1,0,0,1,0,0)" font-size="54.1667"/>
  <g stroke-opacity="1" fill="none" font-family=".SF NS Text" stroke="#000000" stroke-linejoin="bevel" font-style="normal" stroke-linecap="square" font-weight="400" stroke-width="1" transform="matrix(11.8081,0,0,11.8081,569.021,688.98)" font-size="54.1667"/>
  <g stroke-opacity="1" fill="none" font-family=".SF NS Text" stroke="#000000" stroke-linejoin="bevel" font-style="normal" stroke-linecap="square" font-weight="400" stroke-width="1" transform="matrix(11.8081,0,0,11.8081,569.021,688.98)" font-size="54.1667"/>
  <g stroke-opacity="1" fill="none" font-family=".SF NS Text" stroke="#000000" stroke-linejoin="bevel" font-style="normal" stroke-linecap="square" font-weight="400" stroke-width="1" transform="matrix(11.8081,0,0,11.8081,0,0)" font-size="54.1667"/>
  <g stroke-opacity="1" fill="none" font-family=".SF NS Text" stroke="#000000" stroke-linejoin="bevel" font-style="normal" stroke-linecap="square" font-weight="400" stroke-width="1" transform="matrix(11.8081,0,0,11.8081,0,0)" font-size="54.1667"/>
  <g stroke-opacity="1" fill="none" font-family=".SF NS Text" stroke="#000000" stroke-linejoin="bevel" font-style="normal" stroke-linecap="square" font-weight="400" stroke-width="1" transform="matrix(1,0,0,1,0,0)" font-size="54.1667"/>
 </g>
 <defs/>
 <g fill="none" inkscape:label="Layer 5" inkscape:groupmode="layer" stroke="black" fill-rule="evenodd" stroke-linejoin="bevel" stroke-linecap="square" id="Layer 5" stroke-width="1">
  <g stroke-opacity="1" fill="none" font-family=".SF NS Text" stroke="#000000" stroke-linejoin="bevel" font-style="normal" stroke-linecap="square" font-weight="400" stroke-width="1" transform="matrix(1,0,0,1,0,0)" font-size="54.1667"/>
  <g stroke-opacity="1" fill="none" font-family=".SF NS Text" stroke="#000000" stroke-linejoin="bevel" font-style="normal" stroke-linecap="square" font-weight="400" stroke-width="1" transform="matrix(11.8081,0,0,11.8081,569.021,688.98)" font-size="54.1667"/>
  <g stroke-opacity="1" fill="none" font-family=".SF NS Text" stroke="#000000" stroke-linejoin="bevel" font-style="normal" stroke-linecap="square" font-weight="400" stroke-width="1" transform="matrix(11.8081,0,0,11.8081,569.021,688.98)" font-size="54.1667"/>
  <g fill="#000000" font-family=".SF NS Text" stroke="none" font-style="normal" fill-opacity="0" font-weight="400" transform="matrix(0.999751,0,0,0.999751,569.021,688.98)" font-size="54.1667">
   <path fill-rule="evenodd" vector-effect="non-scaling-stroke" d="M0,0 L936,0 L936,878 L0,878 L0,0"/>
  </g>
  <g stroke-opacity="1" fill="none" font-family=".SF NS Text" stroke="#000000" stroke-linejoin="bevel" font-style="normal" stroke-linecap="square" font-weight="400" stroke-width="1" transform="matrix(11.8081,0,0,11.8081,569.021,688.98)" font-size="54.1667"/>
  <g stroke-opacity="1" fill="none" font-family=".SF NS Text" stroke="#000000" stroke-linejoin="bevel" font-style="normal" stroke-linecap="square" font-weight="400" stroke-width="1" transform="matrix(11.8081,0,0,11.8081,569.021,688.98)" font-size="54.1667"/>
  <g stroke-opacity="1" fill="none" font-family=".SF NS Text" stroke="#000000" stroke-linejoin="bevel" font-style="normal" stroke-linecap="square" font-weight="400" stroke-width="1" transform="matrix(11.8081,0,0,11.8081,569.021,688.98)" font-size="54.1667"/>
  <g stroke-opacity="1" fill="none" font-family=".SF NS Text" stroke="#000000" stroke-linejoin="bevel" font-style="normal" stroke-linecap="square" font-weight="400" stroke-width="1" transform="matrix(1,0,0,1,0,0)" font-size="54.1667"/>
  <g stroke-opacity="1" fill="none" font-family=".SF NS Text" stroke="#000000" stroke-linejoin="bevel" font-style="normal" stroke-linecap="square" font-weight="400" stroke-width="1" transform="matrix(11.8081,0,0,11.8081,569.021,688.98)" font-size="54.1667"/>
  <g stroke-opacity="1" fill="none" font-family=".SF NS Text" stroke="#000000" stroke-linejoin="bevel" font-style="normal" stroke-linecap="square" font-weight="400" stroke-width="1" transform="matrix(11.8081,0,0,11.8081,569.021,688.98)" font-size="54.1667"/>
  <g stroke-opacity="1" fill="none" font-family=".SF NS Text" stroke="#000000" stroke-linejoin="bevel" font-style="normal" stroke-linecap="square" font-weight="400" stroke-width="1" transform="matrix(11.8081,0,0,11.8081,0,0)" font-size="54.1667"/>
  <g stroke-opacity="1" fill="none" font-family=".SF NS Text" stroke="#000000" stroke-linejoin="bevel" font-style="normal" stroke-linecap="square" font-weight="400" stroke-width="1" transform="matrix(11.8081,0,0,11.8081,0,0)" font-size="54.1667"/>
  <g stroke-opacity="1" fill="none" font-family=".SF NS Text" stroke="#000000" stroke-linejoin="bevel" font-style="normal" stroke-linecap="square" font-weight="400" stroke-width="1" transform="matrix(1,0,0,1,0,0)" font-size="54.1667"/>
 </g>
 <defs/>
 <g fill="none" inkscape:label="Layer 6" inkscape:groupmode="layer" stroke="black" fill-rule="evenodd" stroke-linejoin="bevel" stroke-linecap="square" id="Layer 6" stroke-width="1">
  <g stroke-opacity="1" fill="none" font-family=".SF NS Text" stroke="#000000" stroke-linejoin="bevel" font-style="normal" stroke-linecap="square" font-weight="400" stroke-width="1" transform="matrix(1,0,0,1,0,0)" font-size="54.1667"/>
  <g stroke-opacity="1" fill="none" font-family=".SF NS Text" stroke="#000000" stroke-linejoin="bevel" font-style="normal" stroke-linecap="square" font-weight="400" stroke-width="1" transform="matrix(11.8081,0,0,11.8081,569.021,688.98)" font-size="54.1667"/>
  <g stroke-opacity="1" fill="none" font-family=".SF NS Text" stroke="#000000" stroke-linejoin="bevel" font-style="normal" stroke-linecap="square" font-weight="400" stroke-width="1" transform="matrix(11.8081,0,0,11.8081,569.021,688.98)" font-size="54.1667"/>
  <g fill="#000000" font-family=".SF NS Text" stroke="none" font-style="normal" fill-opacity="0" font-weight="400" transform="matrix(0.999751,0,0,0.999751,569.021,688.98)" font-size="54.1667">
   <path fill-rule="evenodd" vector-effect="non-scaling-stroke" d="M0,0 L936,0 L936,878 L0,878 L0,0"/>
  </g>
  <g stroke-opacity="1" fill="none" font-family=".SF NS Text" stroke="#000000" stroke-linejoin="bevel" font-style="normal" stroke-linecap="square" font-weight="400" stroke-width="1" transform="matrix(11.8081,0,0,11.8081,569.021,688.98)" font-size="54.1667"/>
  <g stroke-opacity="1" fill="none" font-family=".SF NS Text" stroke="#000000" stroke-linejoin="bevel" font-style="normal" stroke-linecap="square" font-weight="400" stroke-width="1" transform="matrix(11.8081,0,0,11.8081,569.021,688.98)" font-size="54.1667"/>
  <g stroke-opacity="1" fill="none" font-family=".SF NS Text" stroke="#000000" stroke-linejoin="miter" font-style="normal" stroke-linecap="square" font-weight="400" stroke-width="0.3" stroke-miterlimit="2" transform="matrix(11.8081,0,0,11.8081,569.021,688.98)" font-size="54.1667">
   <path fill-rule="evenodd" vector-effect="none" d="M0,0 L79.2231,0 L79.2231,74.3279 L0,74.3279 L0,0"/>
  </g>
  <g stroke-opacity="1" fill="none" font-family=".SF NS Text" stroke="#000000" stroke-linejoin="bevel" font-style="normal" stroke-linecap="square" font-weight="400" stroke-width="1" transform="matrix(11.8081,0,0,11.8081,569.021,688.98)" font-size="54.1667"/>
  <g stroke-opacity="1" fill="none" font-family=".SF NS Text" stroke="#000000" stroke-linejoin="bevel" font-style="normal" stroke-linecap="square" font-weight="400" stroke-width="1" transform="matrix(11.8081,0,0,11.8081,569.021,688.98)" font-size="54.1667"/>
  <g stroke-opacity="1" fill="none" font-family=".SF NS Text" stroke="#000000" stroke-linejoin="bevel" font-style="normal" stroke-linecap="square" font-weight="400" stroke-width="1" transform="matrix(1,0,0,1,0,0)" font-size="54.1667"/>
  <g stroke-opacity="1" fill="none" font-family=".SF NS Text" stroke="#000000" stroke-linejoin="bevel" font-style="normal" stroke-linecap="square" font-weight="400" stroke-width="1" transform="matrix(11.8081,0,0,11.8081,569.021,688.98)" font-size="54.1667"/>
  <g stroke-opacity="1" fill="none" font-family=".SF NS Text" stroke="#000000" stroke-linejoin="bevel" font-style="normal" stroke-linecap="square" font-weight="400" stroke-width="1" transform="matrix(11.8081,0,0,11.8081,569.021,688.98)" font-size="54.1667"/>
  <g stroke-opacity="1" fill="none" font-family=".SF NS Text" stroke="#000000" stroke-linejoin="bevel" font-style="normal" stroke-linecap="square" font-weight="400" stroke-width="1" transform="matrix(11.8081,0,0,11.8081,0,0)" font-size="54.1667"/>
  <g stroke-opacity="1" fill="none" font-family=".SF NS Text" stroke="#000000" stroke-linejoin="bevel" font-style="normal" stroke-linecap="square" font-weight="400" stroke-width="1" transform="matrix(11.8081,0,0,11.8081,0,0)" font-size="54.1667"/>
  <g stroke-opacity="1" fill="none" font-family=".SF NS Text" stroke="#000000" stroke-linejoin="bevel" font-style="normal" stroke-linecap="square" font-weight="400" stroke-width="1" transform="matrix(1,0,0,1,0,0)" font-size="54.1667"/>
 </g>
 <defs/>
 <g fill="none" inkscape:label="Layer 7" inkscape:groupmode="layer" stroke="black" fill-rule="evenodd" stroke-linejoin="bevel" stroke-linecap="square" id="Layer 7" stroke-width="1">
  <g stroke-opacity="1" fill="none" font-family=".SF NS Text" stroke="#000000" stroke-linejoin="bevel" font-style="normal" stroke-linecap="square" font-weight="400" stroke-width="1" transform="matrix(1,0,0,1,0,0)" font-size="54.1667"/>
  <g stroke-opacity="1" fill="none" font-family=".SF NS Text" stroke="#000000" stroke-linejoin="bevel" font-style="normal" stroke-linecap="square" font-weight="400" stroke-width="1" transform="matrix(11.8081,0,0,11.8081,567.25,687.209)" font-size="54.1667"/>
  <g stroke-opacity="1" fill="none" font-family=".SF NS Text" stroke="#000000" stroke-linejoin="bevel" font-style="normal" stroke-linecap="square" font-weight="400" stroke-width="1" transform="matrix(11.8081,0,0,11.8081,567.25,687.209)" font-size="54.1667"/>
  <g stroke-opacity="1" fill="none" font-family=".SF NS Text" stroke="#000000" stroke-linejoin="bevel" font-style="normal" stroke-linecap="square" font-weight="400" stroke-width="1" transform="matrix(11.8081,0,0,11.8081,0,0)" font-size="54.1667"/>
  <g stroke-opacity="1" fill="none" font-family=".SF NS Text" stroke="#000000" stroke-linejoin="bevel" font-style="normal" stroke-linecap="square" font-weight="400" stroke-width="1" transform="matrix(11.8081,0,0,11.8081,0,0)" font-size="54.1667"/>
  <g stroke-opacity="1" fill="none" font-family=".SF NS Text" stroke="#000000" stroke-linejoin="bevel" font-style="normal" stroke-linecap="square" font-weight="400" stroke-width="1" transform="matrix(1,0,0,1,0,0)" font-size="54.1667"/>
 </g>
</svg>
